<svg width="92" height="49" viewBox="0 0 92 49" fill="none" xmlns="http://www.w3.org/2000/svg">
<g id="Logotype">
<g id="Arbitrum">
<path d="M16.9931 18.1934V29.5602C16.9931 30.257 17.3984 30.9538 17.9813 31.2999L27.8408 36.9833C28.4783 37.3294 29.2343 37.3294 29.8719 36.9833L39.7313 31.2999C40.3689 30.9538 40.7195 30.257 40.7195 29.5602V18.1934C40.7195 17.4966 40.3142 16.7999 39.7313 16.4538L29.8673 10.7704C29.2297 10.4243 28.4738 10.4243 27.8362 10.7704L17.9768 16.4538C17.3392 16.7999 16.9931 17.4966 16.9931 18.1934Z" fill="#213147"/>
<path d="M33.3465 19.5869C33.465 19.3547 33.7519 19.3547 33.8111 19.5869L38.6794 32.9849L35.8968 34.6107L31.953 23.763C31.8939 23.6491 31.8939 23.5307 31.953 23.4169L33.3465 19.5869Z" fill="#12AAFF"/>
<path d="M29.635 29.9109L31.0285 26.081C31.1424 25.8487 31.4338 25.8487 31.4885 26.081L34.8539 35.2437L32.0714 36.8694L29.635 30.257C29.5759 30.1432 29.5759 30.0248 29.635 29.9109Z" fill="#12AAFF"/>
<path d="M28.8244 11.1757C28.8836 11.1757 28.9383 11.1757 28.9975 11.2349L39.6675 17.3828C39.7814 17.442 39.8406 17.5559 39.8406 17.7289V30.0248C39.8406 30.1386 39.7814 30.3162 39.6675 30.3709L28.9975 36.5188C28.9383 36.578 28.8836 36.578 28.8244 36.578C28.7652 36.578 28.7106 36.578 28.6514 36.5188L17.9813 30.3709C17.8674 30.3117 17.8082 30.1978 17.8082 30.0248V17.7289C17.8082 17.6151 17.8674 17.4374 17.9813 17.3828L28.6514 11.2349C28.706 11.1757 28.7652 11.1757 28.8244 11.1757ZM28.8244 9.37683C28.4191 9.37683 28.0684 9.49068 27.7223 9.66829L17.0523 15.8162C16.3555 16.2215 15.9502 16.9183 15.9502 17.7289V30.0248C15.9502 30.7807 16.3555 31.5321 17.0523 31.9374L27.7223 38.0854C28.0684 38.2584 28.4191 38.3768 28.8244 38.3768C29.2297 38.3768 29.5804 38.263 29.9265 38.0854L40.5966 31.9374C41.2933 31.5321 41.6986 30.8354 41.6986 30.0248V17.7289C41.6986 16.9729 41.2933 16.2215 40.5966 15.8162L29.9811 9.66829C29.635 9.49524 29.2844 9.37683 28.8791 9.37683H28.8244Z" fill="#9DCCED"/>
<path d="M21.8066 34.6061L22.7903 31.9374L24.7622 33.5632L22.9087 35.3029L21.8066 34.6061Z" fill="#213147"/>
<path d="M29.922 16.8591H32.6497L32.5906 16.8044C32.7636 16.8044 32.8821 16.9775 32.8228 17.1505L25.632 36.8694L22.8495 35.2437L29.4574 17.1505C29.5166 16.9729 29.7489 16.8591 29.922 16.8591Z" fill="white"/>
<path d="M25.2267 16.8591H27.8953C28.0684 16.8591 28.1868 17.0321 28.1276 17.2052L21.7474 34.6653L18.9649 33.0395L24.7622 17.1505C24.8214 16.9729 25.0536 16.8591 25.2267 16.8591Z" fill="white"/>
<path fill-rule="evenodd" clip-rule="evenodd" d="M53.8716 20.3429C53.6985 20.2291 53.4662 20.1699 53.1748 20.1699H52.4734C52.2412 20.1699 52.0727 20.2291 51.8951 20.3429C51.7175 20.4568 51.5444 20.6344 51.3714 20.9805L47.8921 27.3607V27.5337C47.8921 27.5929 47.9513 27.5929 48.0652 27.5929H49.4587C49.5771 27.5929 49.6317 27.5929 49.6909 27.4791L50.4469 26.0855H55.4335L56.1941 27.4791L56.2011 27.4855C56.258 27.5382 56.317 27.5929 56.4264 27.5929H57.7606C57.8745 27.5929 57.9337 27.5929 57.9337 27.5337C57.993 27.4745 57.993 27.4199 57.9337 27.3607L54.3953 20.9805C54.2177 20.689 54.0446 20.4568 53.8716 20.3429ZM54.7368 24.8696H51.0845L52.7694 21.7364C52.7694 21.6772 52.8241 21.6772 52.8833 21.6772H52.9425C52.9648 21.6772 52.9779 21.6772 52.9898 21.6813C53.007 21.6871 53.0213 21.7014 53.0564 21.7364L54.7368 24.8696Z" fill="white"/>
<path fill-rule="evenodd" clip-rule="evenodd" d="M67.3833 20.7482C67.0372 20.3429 66.4543 20.1699 65.6436 20.1699H59.9693C59.7371 20.1699 59.6232 20.2837 59.6232 20.516V27.4153C59.6232 27.5884 59.6825 27.6476 59.8555 27.6476H61.0168C61.1898 27.6476 61.249 27.5884 61.249 27.4153V25.2704H64.6691L66.3495 27.4745C66.3701 27.4951 66.3829 27.5164 66.3941 27.5348C66.4127 27.5654 66.4265 27.5884 66.4633 27.5884C66.4633 27.6476 66.5226 27.6476 66.6364 27.6476H68.0299C68.1438 27.6476 68.203 27.5929 68.203 27.5337C68.203 27.4745 68.203 27.4199 68.1438 27.3607L66.345 25.0973C66.9234 24.9789 67.3286 24.7466 67.5609 24.4005C67.7932 24.0544 67.907 23.5899 67.907 22.9524V22.374C67.907 21.6772 67.7294 21.0943 67.3833 20.7482ZM65.293 23.9952H61.2354V21.7865C61.2354 21.7319 61.2354 21.6727 61.3492 21.6727H65.293C65.6436 21.6727 65.8759 21.7319 66.049 21.9049C66.222 22.0233 66.2812 22.2556 66.2812 22.6017V23.0662C66.2812 23.3577 66.222 23.5899 66.049 23.763C65.9306 23.936 65.6391 23.9952 65.293 23.9952Z" fill="white"/>
<path fill-rule="evenodd" clip-rule="evenodd" d="M76.8374 20.1699C77.5935 20.1699 78.1126 20.3429 78.404 20.6344C78.6955 20.9258 78.8686 21.3903 78.8686 21.9687V22.4924C78.8686 23.0708 78.6363 23.5353 78.1718 23.8267C78.6363 24.1182 78.9278 24.5827 78.9278 25.2203V25.8578C78.9278 26.1326 78.8752 26.3547 78.8232 26.5739L78.8139 26.6138C78.7593 26.8461 78.6409 27.0191 78.5224 27.1922C78.3494 27.3652 78.1763 27.4836 77.9441 27.5383C77.7119 27.5975 77.4204 27.6521 77.0743 27.6521H70.7533C70.521 27.6521 70.4072 27.5383 70.4072 27.306V20.5205C70.4072 20.2883 70.521 20.1744 70.7533 20.1744H76.8374V20.1699ZM72.0284 23.2438H76.373C76.7191 23.2438 76.9513 23.1846 77.0698 23.0708C77.1882 22.9569 77.2428 22.8385 77.2428 22.6063V22.2602C77.2428 22.0279 77.1836 21.8548 77.0698 21.7956C76.9559 21.6818 76.7236 21.6226 76.4914 21.6226H72.1423C72.0284 21.6226 72.0284 21.6818 72.0284 21.7364V23.2438ZM72.0239 24.4051V25.9717C72.0239 26.0855 72.0831 26.0855 72.1377 26.0855H76.4868C76.7783 26.0855 76.9513 26.0263 77.0651 25.9125C77.179 25.7986 77.2382 25.621 77.2382 25.448V25.0427C77.2382 24.8104 77.179 24.6374 77.0651 24.5189C76.9513 24.4005 76.7191 24.3459 76.3092 24.3459H71.9646L72.0239 24.4051Z" fill="white"/>
<path d="M83.0992 20.4021C83.0992 20.2291 83.0401 20.1699 82.867 20.1699H81.7057C81.5327 20.1699 81.4735 20.2291 81.4735 20.4021V27.3607C81.4735 27.5337 81.5327 27.5929 81.7057 27.5929H82.867C83.0401 27.5929 83.0992 27.5337 83.0992 27.3607V20.4021Z" fill="white"/>
<path d="M94.0607 20.1699C94.2338 20.1699 94.2929 20.2291 94.2929 20.4021V21.445C94.2929 21.618 94.2338 21.6772 94.0607 21.6772H90.6953V27.3607C90.6953 27.5337 90.6361 27.5929 90.463 27.5929H89.3018C89.1288 27.5929 89.0695 27.5337 89.0695 27.3607V21.6772H85.7041C85.5311 21.6772 85.4718 21.618 85.4718 21.445V20.4021C85.4718 20.2291 85.5311 20.1699 85.7041 20.1699H94.0607Z" fill="white"/>
<path fill-rule="evenodd" clip-rule="evenodd" d="M104.212 20.7482C103.866 20.3429 103.283 20.1699 102.472 20.1699H96.7977C96.5655 20.1699 96.4517 20.2837 96.4517 20.516V27.4153C96.4517 27.5884 96.5109 27.6476 96.6839 27.6476H97.8452C98.0183 27.6476 98.0774 27.5884 98.0774 27.4153V25.2704H101.498L103.178 27.4745C103.199 27.4951 103.211 27.5164 103.223 27.5348C103.241 27.5654 103.255 27.5884 103.292 27.5884C103.292 27.6476 103.351 27.6476 103.465 27.6476H104.858C104.972 27.6476 105.031 27.5929 105.031 27.5337C105.031 27.4745 105.031 27.4199 104.972 27.3607L103.173 25.0973C103.752 24.9789 104.157 24.7466 104.389 24.4005C104.622 24.0544 104.735 23.5899 104.735 22.9524V22.374C104.735 21.6772 104.558 21.0943 104.212 20.7482ZM102.121 23.9952H98.0638V21.7865C98.0638 21.7319 98.0638 21.6727 98.1777 21.6727H102.121C102.472 21.6727 102.704 21.7319 102.877 21.9049C103.05 22.0233 103.11 22.2556 103.11 22.6017V23.0662C103.11 23.3577 103.05 23.5899 102.877 23.763C102.759 23.936 102.467 23.9952 102.121 23.9952Z" fill="white"/>
<path d="M108.447 20.1699C108.62 20.1699 108.679 20.2291 108.679 20.4021V24.6374C108.679 24.9288 108.679 25.1611 108.738 25.3341L108.748 25.3617L108.748 25.3629C108.804 25.5262 108.859 25.6868 108.971 25.7986C109.089 25.917 109.203 25.9717 109.376 26.0309C109.549 26.0901 109.781 26.0901 110.073 26.0901H113.033C113.324 26.0901 113.557 26.0901 113.73 26.0309L113.751 26.0234C113.917 25.9669 114.078 25.912 114.135 25.7986C114.247 25.6869 114.306 25.5138 114.364 25.3439L114.367 25.3341C114.426 25.1611 114.426 24.9288 114.426 24.6374V20.4021C114.426 20.2291 114.485 20.1699 114.659 20.1699H115.82C115.993 20.1699 116.052 20.2291 116.052 20.4021V24.8104C116.052 25.3341 115.993 25.7394 115.879 26.0855C115.765 26.4316 115.588 26.7231 115.355 26.9553C115.123 27.1876 114.832 27.3607 114.426 27.4199C114.021 27.5337 113.616 27.5929 113.033 27.5929H109.959C109.435 27.5929 108.971 27.5337 108.565 27.4199C108.219 27.306 107.869 27.1284 107.636 26.9553C107.404 26.7231 107.231 26.4316 107.113 26.0855C106.999 25.7394 106.94 25.2749 106.94 24.8104V20.4021C106.94 20.2291 106.999 20.1699 107.172 20.1699H108.447Z" fill="white"/>
<path d="M121.03 20.2291C120.916 20.1699 120.797 20.1699 120.624 20.1699H119.522C119.172 20.1699 118.88 20.2291 118.766 20.4021C118.653 20.5752 118.593 20.8666 118.593 21.2719V27.3652C118.593 27.5383 118.653 27.5975 118.826 27.5975H119.932C120.105 27.5975 120.164 27.5383 120.164 27.3652V21.7956C120.164 21.741 120.164 21.6818 120.224 21.6818H120.337C120.392 21.6818 120.451 21.6818 120.451 21.741L122.596 26.4954C122.645 26.5662 122.683 26.6378 122.72 26.7054C122.772 26.8031 122.82 26.8926 122.888 26.9599C122.909 26.9909 122.928 27.0201 122.946 27.0474C123.029 27.172 123.086 27.2574 123.179 27.306C123.255 27.3456 123.332 27.3832 123.409 27.4215C123.447 27.4404 123.486 27.4595 123.525 27.4791C123.644 27.5383 123.817 27.5383 123.99 27.5383H124.513C124.687 27.5383 124.864 27.5383 124.978 27.4791C125.056 27.4791 125.135 27.4261 125.214 27.3736C125.251 27.3492 125.288 27.3248 125.324 27.306C125.385 27.2476 125.429 27.1891 125.473 27.13C125.515 27.074 125.558 27.0175 125.616 26.9599C125.734 26.8415 125.848 26.6684 125.907 26.4954L128.052 21.741C128.052 21.741 128.107 21.6818 128.166 21.6818H128.28C128.28 21.6818 128.339 21.7364 128.339 21.7956V27.3607C128.339 27.5337 128.398 27.5929 128.571 27.5929H129.673C129.846 27.5929 129.905 27.5337 129.905 27.3607V21.2719C129.905 20.8666 129.846 20.5752 129.732 20.4021C129.614 20.2291 129.323 20.1699 128.976 20.1699H127.815C127.72 20.1699 127.643 20.1876 127.574 20.2037C127.516 20.2169 127.463 20.2291 127.41 20.2291C127.291 20.2291 127.178 20.2837 127.118 20.3429C127 20.4021 126.945 20.4613 126.886 20.5752C126.768 20.689 126.713 20.8074 126.654 20.9805L124.45 26.0855L124.428 26.1055C124.377 26.1537 124.329 26.1994 124.277 26.1994H124.163C124.079 26.1994 124.057 26.1699 124.028 26.1307C124.017 26.1166 124.005 26.1012 123.99 26.0855L121.786 20.9805C121.686 20.8355 121.632 20.7289 121.582 20.6312L121.553 20.5752C121.512 20.4929 121.445 20.4414 121.387 20.3978C121.362 20.3786 121.339 20.361 121.321 20.3429C121.262 20.2883 121.144 20.2291 121.03 20.2291Z" fill="white"/>
</g>
</g>
</svg>
