<svg width="146" height="49" viewBox="0 0 146 49" fill="none" xmlns="http://www.w3.org/2000/svg">
<g id="Logotype">
<g id="BNB">
<path d="M8.0578 15.8102L14.4986 12.0834L20.9393 15.8102L18.5227 17.1204L14.4986 14.8028L10.3699 17.1204L8.0578 15.8102ZM20.8402 20.4399L18.5227 19.1297L14.4986 21.4473L10.3699 19.1297L8.0523 20.4399V23.1593L12.0819 25.4769V30.2111L14.3995 31.6204L16.7171 30.2111V25.5815L20.7467 23.2639V20.4454H20.8402V20.4399ZM20.8402 27.8935V25.1741L18.5227 26.5834V29.1982L20.8402 27.8935ZM22.5523 28.7964L18.5282 31.1139V33.8334L24.9744 30.1065V22.6584L22.5578 24.1667L22.5523 28.7964ZM20.2347 18.1278L22.5523 19.5371V22.2565L24.8698 20.8472V18.1278L22.5523 16.7185L20.2347 18.1278ZM12.0819 32.1213V34.8408L14.3995 36.25L16.7171 34.8408V32.1213L14.3995 33.5306L12.0819 32.1213ZM8.0523 27.8935L10.3699 29.2037V26.4843L8.0523 25.075V27.8935ZM12.0819 18.1278L14.3995 19.5371L16.8161 18.1278L14.4986 16.7185L12.0819 18.1278ZM6.34577 19.5371L8.76243 18.1278L6.34577 16.7185L4.0282 18.1278V20.8472L6.34577 22.2565V19.5371ZM6.34577 24.1667L4.0282 22.7574V30.2056L10.4745 33.9325V31.213L6.44486 28.8954V24.1612L6.34577 24.1667Z" fill="#F0B90B"/>
<path d="M43.493 27.288C43.493 25.4768 42.4856 24.5685 40.9772 23.963C41.9846 23.462 42.7883 22.5537 42.7883 21.0454C42.7883 18.9315 41.0763 17.5222 38.3569 17.5222H32.1143V31.0148H38.555C41.4782 30.9102 43.493 29.7046 43.493 27.288ZM39.7661 21.5463C39.7661 22.5537 38.9624 22.9556 37.6522 22.9556H34.9328V20.038H37.8504C39.1661 20.038 39.7661 20.5444 39.7661 21.5463ZM40.5754 26.8861C40.5754 27.8935 39.7716 28.3944 38.4615 28.3944H34.9383V25.4768H38.3624C39.8707 25.3722 40.5754 25.9778 40.5754 26.8861Z" fill="#F0B90B"/>
<path d="M58.0921 17.5223H55.169V25.7797L48.8273 17.5223H46.1134V31.0148H49.031V22.4547L55.5764 31.0148H58.0921V17.5223Z" fill="#F0B90B"/>
<path d="M72.8894 27.288C72.8894 25.4768 71.882 24.5685 70.3736 23.963C71.3811 23.462 72.1848 22.5537 72.1848 21.0454C72.1848 18.9315 70.4727 17.5222 67.7533 17.5222H61.5107V31.0148H67.9515C70.8746 30.9102 72.8894 29.7046 72.8894 27.288ZM69.2672 21.5463C69.2672 22.5537 68.4634 22.9556 67.1533 22.9556H64.4338V20.038H67.3515C68.5625 20.038 69.2672 20.5444 69.2672 21.5463ZM69.9718 26.8861C69.9718 27.8935 69.1681 28.3944 67.8579 28.3944H64.3348V25.4768H67.7588C69.2672 25.3722 69.9718 25.9778 69.9718 26.8861Z" fill="#F0B90B"/>
<path d="M90.7089 28.5983L89.2005 27.0899C88.094 28.1964 86.9875 28.8019 85.3746 28.8019C82.7542 28.8019 80.9431 26.6881 80.9431 23.9686C80.9431 21.3483 82.8588 19.2399 85.3746 19.2399C86.8829 19.2399 88.094 19.9445 89.1014 20.9519L90.6098 19.1408C89.2996 17.9352 87.7912 17.0269 85.3746 17.0269C81.345 17.0269 78.4274 20.1482 78.4274 23.9741C78.4274 27.8991 81.345 30.9213 85.2755 30.9213C87.7913 30.9103 89.2996 30.0075 90.7089 28.5983Z" fill="#F0B90B"/>
<path d="M102.187 25.075V30.7121H104.504V17.2195H102.187V22.8565H95.7458V17.2195H93.4282V30.7121H95.7458V25.075H102.187Z" fill="#F0B90B"/>
<path d="M115.172 17.2195H112.959L107.02 30.8112H109.436L110.846 27.5908H117.187L118.596 30.8112H121.112L115.172 17.2195ZM116.384 25.3723H111.754L114.071 20.0381L116.384 25.3723Z" fill="#F0B90B"/>
<path d="M123.733 17.2195V30.7121H126.045V17.2195H123.733Z" fill="#F0B90B"/>
<path d="M139.235 26.5834L131.985 17.3186H129.871V30.8112H132.189V21.1445L139.637 30.7121H141.652V17.2195H139.334V26.5834H139.235Z" fill="#F0B90B"/>
</g>
</g>
</svg>
