<svg width="115" height="55" viewBox="0 0 115 55" fill="none" xmlns="http://www.w3.org/2000/svg">
<g id="Vector">
<path d="M66.1072 11.5006H66.0603L59.3475 15.1741L55.7731 19.1362L51.3177 14.1974L46.4958 11.5006H45.4391V19.1362H48.8848V17.2298L54.238 23.1637V41.4857L51.4251 43.3283L55.8034 46.4026L60.0984 43.4525L57.2871 41.5494V23.1889L62.663 17.2298V26.8925L61.7229 27.9229L59.1265 30.7758L63.1142 33.6672L66.0769 30.9385L66.08 30.5912H66.1072V27.8424L66.1542 23.0563L66.1072 23.1083V11.5006Z" fill="url(#paint0_linear_202_2002)"/>
<path d="M45.4391 30.5912H45.645L45.648 30.9385L48.6077 33.6672L52.5954 30.7758L49.9839 27.9095L48.8848 26.6996V22.9556L45.4391 19.1362V30.5912Z" fill="url(#paint1_linear_202_2002)"/>
<path d="M16.5109 30.3177V26.4999H3.44419V22.6821L0 18.8626V30.3177H16.5109Z" fill="url(#paint2_linear_202_2002)"/>
<path d="M0 18.8626H3.44419V15.0449H16.5109V11.2271H0V18.8626Z" fill="url(#paint3_linear_202_2002)"/>
<path d="M37.0731 15.0449V30.3177H40.5173V11.2271H35.3517L18.1293 30.3177H23.2948L37.0731 15.0449Z" fill="url(#paint4_linear_202_2002)"/>
<path d="M18.1341 18.8626V22.6821H21.5783L18.1341 18.8626Z" fill="url(#paint5_linear_202_2002)"/>
<path d="M69.5272 11.2271V16.9563L71.25 18.8626H72.9714V20.7741L74.6957 22.6821L69.5272 28.4113V30.3177H90.9674L92.6888 28.4113V26.4999H76.4155L79.8612 22.6821H89.2446V18.8626H76.4155L72.9714 15.0449H92.6888V13.1368L90.9674 11.2271H69.5272Z" fill="url(#paint6_linear_202_2002)"/>
<path d="M69.5272 20.7741V22.6821H71.25L69.5272 20.7741Z" fill="url(#paint7_linear_202_2002)"/>
<path d="M100.304 26.4999V22.6821L96.8596 18.8626V30.3177H113.034L114.756 28.4113V26.4999H100.304Z" fill="url(#paint8_linear_202_2002)"/>
<path d="M100.304 11.2271H96.8596V18.8643H100.304V11.2271Z" fill="url(#paint9_linear_202_2002)"/>
<path d="M22.17 35.9797V43.3249H25.4809V39.6532H38.7339V46.9984H25.4809L22.17 43.3249V54.342H25.4809V50.6685H33.7651L37.0761 54.342H42.0478L38.7339 50.6685L42.0478 46.9984V37.8156L40.3901 35.9797H22.17Z" fill="url(#paint10_linear_202_2002)"/>
<path d="M62.6236 50.6685H49.3722V35.9797H46.0582V52.5061L47.7145 54.342H64.2784L65.9361 52.5061V43.3249L62.6236 46.9984V50.6685Z" fill="url(#paint11_linear_202_2002)"/>
<path d="M62.6237 43.3249H65.9361L65.9362 35.9797H62.6237V43.3249Z" fill="url(#paint12_linear_202_2002)"/>
<path d="M86.512 50.6685L73.259 35.9797H69.9481V43.3249H73.259V41.4907L84.8542 54.342H89.826V35.9797H86.512V50.6685Z" fill="url(#paint13_linear_202_2002)"/>
<path d="M73.259 54.342V46.9984L69.9481 43.3249V54.342H73.259Z" fill="url(#paint14_linear_202_2002)"/>
<path d="M49.2617 10.091L53.3902 6.50312L44.7971 0.189941L45.5056 7.93961L49.2617 10.091Z" fill="url(#paint15_linear_202_2002)"/>
<path d="M58.3755 6.50312L62.504 10.091L66.2601 7.93961L66.9686 0.189941L58.3755 6.50312Z" fill="url(#paint16_linear_202_2002)"/>
</g>
<defs>
<linearGradient id="paint0_linear_202_2002" x1="132.868" y1="130.156" x2="-34.8427" y2="81.5985" gradientUnits="userSpaceOnUse">
<stop stop-color="#F3DEB9"/>
<stop offset="0.670275" stop-color="#DCAB53"/>
</linearGradient>
<linearGradient id="paint1_linear_202_2002" x1="132.868" y1="130.156" x2="-34.8427" y2="81.5985" gradientUnits="userSpaceOnUse">
<stop stop-color="#F3DEB9"/>
<stop offset="0.670275" stop-color="#DCAB53"/>
</linearGradient>
<linearGradient id="paint2_linear_202_2002" x1="132.868" y1="130.156" x2="-34.8427" y2="81.5985" gradientUnits="userSpaceOnUse">
<stop stop-color="#F3DEB9"/>
<stop offset="0.670275" stop-color="#DCAB53"/>
</linearGradient>
<linearGradient id="paint3_linear_202_2002" x1="132.868" y1="130.156" x2="-34.8427" y2="81.5985" gradientUnits="userSpaceOnUse">
<stop stop-color="#F3DEB9"/>
<stop offset="0.670275" stop-color="#DCAB53"/>
</linearGradient>
<linearGradient id="paint4_linear_202_2002" x1="132.868" y1="130.156" x2="-34.8427" y2="81.5985" gradientUnits="userSpaceOnUse">
<stop stop-color="#F3DEB9"/>
<stop offset="0.670275" stop-color="#DCAB53"/>
</linearGradient>
<linearGradient id="paint5_linear_202_2002" x1="132.868" y1="130.156" x2="-34.8427" y2="81.5985" gradientUnits="userSpaceOnUse">
<stop stop-color="#F3DEB9"/>
<stop offset="0.670275" stop-color="#DCAB53"/>
</linearGradient>
<linearGradient id="paint6_linear_202_2002" x1="132.868" y1="130.156" x2="-34.8427" y2="81.5985" gradientUnits="userSpaceOnUse">
<stop stop-color="#F3DEB9"/>
<stop offset="0.670275" stop-color="#DCAB53"/>
</linearGradient>
<linearGradient id="paint7_linear_202_2002" x1="132.868" y1="130.156" x2="-34.8427" y2="81.5985" gradientUnits="userSpaceOnUse">
<stop stop-color="#F3DEB9"/>
<stop offset="0.670275" stop-color="#DCAB53"/>
</linearGradient>
<linearGradient id="paint8_linear_202_2002" x1="132.868" y1="130.156" x2="-34.8427" y2="81.5985" gradientUnits="userSpaceOnUse">
<stop stop-color="#F3DEB9"/>
<stop offset="0.670275" stop-color="#DCAB53"/>
</linearGradient>
<linearGradient id="paint9_linear_202_2002" x1="132.868" y1="130.156" x2="-34.8427" y2="81.5985" gradientUnits="userSpaceOnUse">
<stop stop-color="#F3DEB9"/>
<stop offset="0.670275" stop-color="#DCAB53"/>
</linearGradient>
<linearGradient id="paint10_linear_202_2002" x1="132.868" y1="130.156" x2="-34.8427" y2="81.5985" gradientUnits="userSpaceOnUse">
<stop stop-color="#F3DEB9"/>
<stop offset="0.670275" stop-color="#DCAB53"/>
</linearGradient>
<linearGradient id="paint11_linear_202_2002" x1="132.868" y1="130.156" x2="-34.8427" y2="81.5985" gradientUnits="userSpaceOnUse">
<stop stop-color="#F3DEB9"/>
<stop offset="0.670275" stop-color="#DCAB53"/>
</linearGradient>
<linearGradient id="paint12_linear_202_2002" x1="132.868" y1="130.156" x2="-34.8427" y2="81.5985" gradientUnits="userSpaceOnUse">
<stop stop-color="#F3DEB9"/>
<stop offset="0.670275" stop-color="#DCAB53"/>
</linearGradient>
<linearGradient id="paint13_linear_202_2002" x1="132.868" y1="130.156" x2="-34.8427" y2="81.5985" gradientUnits="userSpaceOnUse">
<stop stop-color="#F3DEB9"/>
<stop offset="0.670275" stop-color="#DCAB53"/>
</linearGradient>
<linearGradient id="paint14_linear_202_2002" x1="132.868" y1="130.156" x2="-34.8427" y2="81.5985" gradientUnits="userSpaceOnUse">
<stop stop-color="#F3DEB9"/>
<stop offset="0.670275" stop-color="#DCAB53"/>
</linearGradient>
<linearGradient id="paint15_linear_202_2002" x1="132.868" y1="130.156" x2="-34.8427" y2="81.5985" gradientUnits="userSpaceOnUse">
<stop stop-color="#F3DEB9"/>
<stop offset="0.670275" stop-color="#DCAB53"/>
</linearGradient>
<linearGradient id="paint16_linear_202_2002" x1="132.868" y1="130.156" x2="-34.8427" y2="81.5985" gradientUnits="userSpaceOnUse">
<stop stop-color="#F3DEB9"/>
<stop offset="0.670275" stop-color="#DCAB53"/>
</linearGradient>
</defs>
</svg>
