<svg width="146" height="41" viewBox="0 0 146 41" fill="none" xmlns="http://www.w3.org/2000/svg">
<g id="Logotype">
<g id="Cardano">
<path d="M26.067 9.43217C25.9435 9.5049 25.8012 9.53937 25.6581 9.53122C25.4664 9.5203 25.2868 9.4337 25.1589 9.29045C25.031 9.14719 24.9652 8.95901 24.976 8.76726C24.984 8.62417 25.0343 8.48667 25.1205 8.37217C25.2067 8.25766 25.3249 8.17129 25.4602 8.12398C25.5955 8.07668 25.7417 8.07055 25.8805 8.10639C26.0193 8.14223 26.1443 8.21842 26.2398 8.32532C26.3352 8.43222 26.3968 8.56504 26.4168 8.70696C26.4367 8.84888 26.4142 8.99353 26.3519 9.12262C26.2896 9.25171 26.1905 9.35944 26.067 9.43217Z" fill="#0033AD"/>
<path d="M31.6428 9.79675C31.737 9.85853 31.8475 9.89096 31.9602 9.88995C32.0729 9.88894 32.1827 9.85452 32.2758 9.79106C32.3689 9.7276 32.4411 9.63794 32.4833 9.53343C32.5255 9.42893 32.5357 9.31426 32.5126 9.20395C32.4896 9.09364 32.4344 8.99264 32.3539 8.91373C32.2735 8.83482 32.1714 8.78155 32.0607 8.76065C31.9499 8.73975 31.8355 8.75217 31.7318 8.79633C31.6282 8.84049 31.5399 8.91441 31.4783 9.00874C31.3957 9.13508 31.3666 9.28904 31.3975 9.43679C31.4283 9.58454 31.5166 9.71401 31.6428 9.79675Z" fill="#0033AD"/>
<path d="M19.9408 9.6272C19.8861 9.72536 19.8035 9.80513 19.7036 9.85647C19.6365 9.89075 19.5634 9.91142 19.4883 9.9173C19.4132 9.92317 19.3378 9.91413 19.2662 9.8907C19.1947 9.86727 19.1285 9.8299 19.0714 9.78076C19.0144 9.73162 18.9676 9.67168 18.9338 9.60438C18.8836 9.50384 18.8642 9.39069 18.8782 9.27917C18.8921 9.16765 18.9387 9.06274 19.0121 8.97765C19.0856 8.89256 19.1825 8.83109 19.2908 8.80099C19.3991 8.77088 19.5138 8.77348 19.6206 8.80846C19.7275 8.84344 19.8215 8.90924 19.891 8.99756C19.9605 9.08589 20.0023 9.1928 20.0112 9.30484C20.0201 9.41688 19.9956 9.52904 19.9408 9.6272Z" fill="#0033AD"/>
<path d="M19.8151 20.0756C19.7883 20.5425 19.948 21.001 20.259 21.3503C20.57 21.6996 21.007 21.9111 21.4739 21.9384H21.5701C21.914 21.938 22.2502 21.8369 22.5373 21.6477C22.8244 21.4584 23.0498 21.1892 23.1856 20.8734C23.3215 20.5575 23.3619 20.2087 23.3019 19.8702C23.2418 19.5316 23.084 19.218 22.8478 18.9681C22.6116 18.7182 22.3074 18.5429 21.9727 18.4639C21.638 18.3849 21.2876 18.4057 20.9645 18.5235C20.6415 18.6414 20.3601 18.8513 20.155 19.1273C19.9498 19.4033 19.83 19.7333 19.8103 20.0766L19.8151 20.0756Z" fill="#0033AD"/>
<path d="M13.2492 19.6291C13.137 19.6228 13.0254 19.65 12.9285 19.7071C12.8317 19.7642 12.754 19.8488 12.7052 19.95C12.6564 20.0513 12.6387 20.1648 12.6544 20.2761C12.67 20.3875 12.7184 20.4917 12.7932 20.5755C12.8681 20.6594 12.9661 20.7192 13.075 20.7474C13.1838 20.7755 13.2986 20.7708 13.4047 20.7338C13.5109 20.6967 13.6037 20.6291 13.6714 20.5393C13.7391 20.4496 13.7787 20.3418 13.7851 20.2295C13.7896 20.1549 13.7792 20.0801 13.7546 20.0094C13.73 19.9388 13.6918 19.8737 13.642 19.8179C13.5922 19.7621 13.5318 19.7167 13.4644 19.6843C13.397 19.6519 13.3239 19.6332 13.2492 19.6291Z" fill="#0033AD"/>
<path d="M21.4901 12.972C21.6454 12.8936 21.774 12.771 21.8596 12.6197C21.9452 12.4683 21.984 12.2949 21.9711 12.1215C21.9582 11.9481 21.8941 11.7824 21.787 11.6453C21.68 11.5083 21.5347 11.4061 21.3695 11.3516C21.2044 11.2971 21.0268 11.2929 20.8592 11.3393C20.6916 11.3858 20.5415 11.4809 20.428 11.6126C20.3144 11.7443 20.2425 11.9067 20.2212 12.0793C20.2 12.2519 20.2304 12.427 20.3086 12.5823C20.3606 12.6855 20.4324 12.7774 20.5199 12.8529C20.6074 12.9283 20.7089 12.9858 20.8186 13.022C20.9284 13.0581 21.0441 13.0724 21.1594 13.0638C21.2746 13.0552 21.387 13.024 21.4901 12.972Z" fill="#0033AD"/>
<path d="M15.8812 15.2338C15.7378 15.2349 15.5974 15.1934 15.4776 15.1147C15.3172 15.0092 15.2053 14.8444 15.1663 14.6564C15.1273 14.4684 15.1646 14.2726 15.2698 14.1121C15.3484 13.9922 15.4608 13.8983 15.5927 13.8424C15.7247 13.7864 15.8703 13.7708 16.0111 13.7976C16.1519 13.8243 16.2816 13.8923 16.3838 13.9928C16.486 14.0933 16.5561 14.2219 16.5852 14.3623C16.6143 14.5026 16.6011 14.6484 16.5473 14.7813C16.4934 14.9141 16.4014 15.0281 16.2829 15.1086C16.1643 15.1892 16.0245 15.2327 15.8812 15.2338Z" fill="#0033AD"/>
<path d="M16.5483 19.3088C16.3746 19.299 16.202 19.3409 16.0522 19.4291C15.9024 19.5174 15.7821 19.6482 15.7066 19.8048C15.6311 19.9614 15.6036 20.1369 15.6278 20.3091C15.652 20.4813 15.7267 20.6425 15.8425 20.7723C15.9583 20.902 16.1099 20.9945 16.2783 21.0381C16.4466 21.0817 16.6241 21.0744 16.7883 21.0172C16.9525 20.9599 17.096 20.8552 17.2007 20.7164C17.3055 20.5776 17.3667 20.4109 17.3767 20.2372C17.3898 20.0043 17.3099 19.7757 17.1546 19.6016C16.9993 19.4275 16.7812 19.3222 16.5483 19.3088Z" fill="#0033AD"/>
<path d="M15.2696 25.5117C15.34 25.3869 15.4458 25.2858 15.5737 25.2212C15.6587 25.1783 15.7513 25.1525 15.8462 25.1454C15.9411 25.1382 16.0365 25.1499 16.127 25.1796C16.2174 25.2094 16.3011 25.2567 16.3732 25.3188C16.4454 25.3809 16.5046 25.4566 16.5474 25.5416C16.6119 25.6695 16.6371 25.8137 16.6196 25.9559C16.6022 26.0981 16.543 26.232 16.4496 26.3405C16.3561 26.4491 16.2325 26.5275 16.0945 26.5659C15.9565 26.6042 15.8101 26.6008 15.6741 26.556C15.538 26.5113 15.4182 26.4271 15.3299 26.3143C15.2416 26.2015 15.1888 26.065 15.178 25.9221C15.1673 25.7793 15.1992 25.6364 15.2696 25.5117Z" fill="#0033AD"/>
<path d="M18.9923 17.4912C19.1635 17.6035 19.3642 17.6624 19.5689 17.6606C19.7737 17.6587 19.9733 17.5963 20.1425 17.481C20.3117 17.3658 20.443 17.2029 20.5197 17.0131C20.5964 16.8232 20.615 16.6149 20.5733 16.4144C20.5316 16.214 20.4314 16.0304 20.2854 15.8869C20.1393 15.7434 19.954 15.6464 19.7529 15.6082C19.5517 15.57 19.3438 15.5923 19.1553 15.6723C18.9668 15.7523 18.8063 15.8864 18.694 16.0576C18.6193 16.1713 18.5678 16.2986 18.5423 16.4322C18.5169 16.5658 18.5181 16.7031 18.5458 16.8363C18.5735 16.9694 18.6272 17.0958 18.7038 17.2082C18.7804 17.3206 18.8784 17.4168 18.9923 17.4912Z" fill="#0033AD"/>
<path d="M30.3284 13.0456C30.1543 13.0475 29.9836 12.9977 29.8378 12.9026C29.7408 12.8395 29.6572 12.7579 29.5918 12.6624C29.5265 12.5669 29.4806 12.4594 29.4568 12.3462C29.433 12.2329 29.4318 12.1161 29.4533 12.0024C29.4747 11.8887 29.5184 11.7803 29.5819 11.6835C29.6771 11.5378 29.8134 11.4236 29.9736 11.3554C30.1337 11.2871 30.3105 11.2678 30.4816 11.3C30.6527 11.3322 30.8104 11.4144 30.9348 11.5362C31.0591 11.658 31.1446 11.814 31.1804 11.9843C31.2161 12.1547 31.2006 12.3319 31.1357 12.4934C31.0708 12.6549 30.9595 12.7936 30.8158 12.8919C30.6721 12.9902 30.5025 13.0436 30.3284 13.0456Z" fill="#0033AD"/>
<path d="M29.2958 18.4947C29.5142 18.4186 29.7454 18.3862 29.9763 18.3995C30.207 18.4113 30.433 18.469 30.6411 18.5691C30.8493 18.6692 31.0354 18.8098 31.1887 18.9826C31.415 19.2359 31.5631 19.5494 31.6153 19.8851C31.6675 20.2207 31.6214 20.5644 31.4827 20.8745C31.3439 21.1846 31.1185 21.4479 30.8334 21.6328C30.5484 21.8176 30.216 21.916 29.8763 21.9162H29.7743C29.3079 21.8894 28.8713 21.6785 28.5605 21.3298C28.2497 20.981 28.0902 20.5232 28.117 20.0568C28.1438 19.5905 28.3547 19.1539 28.7034 18.8431C28.8761 18.6892 29.0773 18.5708 29.2958 18.4947Z" fill="#0033AD"/>
<path d="M22.0686 17.369C22.2147 17.661 22.4395 17.9065 22.7176 18.0776C22.9957 18.2488 23.3161 18.339 23.6427 18.3379C23.9437 18.338 24.2398 18.2609 24.5026 18.114C24.7654 17.9671 24.9862 17.7553 25.1439 17.4988C25.3015 17.2423 25.3908 16.9497 25.4033 16.6489C25.4157 16.3481 25.3508 16.0491 25.2148 15.7805C25.0676 15.4898 24.8424 15.2458 24.5644 15.0759C24.2864 14.9059 23.9666 14.8168 23.6407 14.8183C23.3406 14.8188 23.0455 14.896 22.7836 15.0426C22.5217 15.1891 22.3015 15.4001 22.144 15.6557C21.9865 15.9112 21.8969 16.2027 21.8837 16.5025C21.8705 16.8024 21.9341 17.1006 22.0686 17.369Z" fill="#0033AD"/>
<path d="M36.1796 14.8224C36.1091 14.9471 36.0032 15.0481 35.8753 15.1127C35.7036 15.1991 35.5045 15.2137 35.322 15.1535C35.1394 15.0932 34.9882 14.963 34.9016 14.7913C34.8373 14.6633 34.8123 14.5191 34.8299 14.377C34.8474 14.2348 34.9068 14.101 35.0003 13.9926C35.0939 13.8841 35.2175 13.8058 35.3556 13.7676C35.4937 13.7294 35.6399 13.7329 35.776 13.7778C35.912 13.8227 36.0317 13.907 36.1199 14.0198C36.208 14.1327 36.2608 14.2692 36.2714 14.4121C36.282 14.5549 36.2501 14.6977 36.1796 14.8224Z" fill="#0033AD"/>
<path d="M31.4099 15.6737C31.227 15.7658 31.0755 15.91 30.9747 16.0882C30.8738 16.2664 30.828 16.4705 30.8431 16.6747C30.8582 16.8789 30.9335 17.074 31.0595 17.2354C31.1856 17.3968 31.3566 17.5172 31.551 17.5814C31.7455 17.6456 31.9546 17.6507 32.1519 17.596C32.3493 17.5414 32.5259 17.4294 32.6597 17.2744C32.7934 17.1193 32.8781 16.928 32.9031 16.7248C32.9281 16.5216 32.8923 16.3155 32.8002 16.1326C32.7391 16.0111 32.6547 15.9028 32.5518 15.814C32.4488 15.7251 32.3294 15.6574 32.2002 15.6148C32.0711 15.5722 31.9348 15.5554 31.7992 15.5655C31.6636 15.5756 31.5313 15.6124 31.4099 15.6737Z" fill="#0033AD"/>
<path d="M25.6504 14.0909C25.8548 14.1024 26.058 14.053 26.2343 13.949C26.4106 13.845 26.5522 13.6911 26.641 13.5067C26.7299 13.3223 26.7621 13.1157 26.7336 12.913C26.705 12.7102 26.617 12.5206 26.4807 12.3678C26.3444 12.2151 26.1659 12.1063 25.9677 12.055C25.7695 12.0037 25.5606 12.0123 25.3673 12.0797C25.1741 12.1472 25.0051 12.2704 24.8818 12.4338C24.7586 12.5972 24.6865 12.7935 24.6748 12.9979C24.6593 13.2722 24.7534 13.5414 24.9363 13.7464C25.1193 13.9514 25.3761 14.0753 25.6504 14.0909Z" fill="#0033AD"/>
<path d="M20.4763 24.2446C20.3754 24.4228 20.224 24.5671 20.0412 24.6593C19.7961 24.7829 19.5119 24.8041 19.2512 24.7182C18.9905 24.6323 18.7745 24.4464 18.6509 24.2013C18.5586 24.0185 18.5226 23.8125 18.5475 23.6092C18.5723 23.4059 18.6569 23.2146 18.7905 23.0594C18.9241 22.9042 19.1008 22.7922 19.2981 22.7374C19.4954 22.6826 19.7045 22.6875 19.899 22.7516C20.0935 22.8157 20.2647 22.936 20.3908 23.0973C20.5169 23.2586 20.5923 23.4537 20.6075 23.658C20.6228 23.8622 20.5771 24.0663 20.4763 24.2446Z" fill="#0033AD"/>
<path d="M26.3194 15.6015C26.1046 15.9292 26.0053 16.3191 26.0372 16.7096C26.069 17.1001 26.2301 17.4688 26.4951 17.7574C26.76 18.0459 27.1136 18.2379 27.5 18.3029C27.8863 18.3679 28.2833 18.3022 28.6281 18.1162C28.9729 17.9302 29.2458 17.6345 29.4036 17.276C29.5615 16.9174 29.5952 16.5165 29.4995 16.1366C29.4039 15.7566 29.1842 15.4195 28.8754 15.1785C28.5665 14.9375 28.1861 14.8063 27.7944 14.8058C27.5018 14.8056 27.2137 14.8782 26.9562 15.0172C26.6987 15.1561 26.4799 15.3569 26.3194 15.6015Z" fill="#0033AD"/>
<path d="M28.7633 22.2783C29.0266 22.4482 29.2397 22.6852 29.3808 22.9649C29.5896 23.3816 29.6248 23.8639 29.4787 24.3065C29.3327 24.749 29.0172 25.1156 28.6014 25.3261C28.3556 25.4508 28.0842 25.5166 27.8086 25.5185C27.4953 25.5185 27.1877 25.4349 26.9175 25.2764C26.6473 25.1178 26.4243 24.89 26.2715 24.6165C26.1187 24.343 26.0416 24.0337 26.0482 23.7204C26.0549 23.4072 26.145 23.1014 26.3092 22.8346C26.4735 22.5679 26.706 22.3497 26.9826 22.2028C27.2593 22.0558 27.5702 21.9853 27.8832 21.9986C28.1963 22.0119 28.5001 22.1084 28.7633 22.2783Z" fill="#0033AD"/>
<path d="M32.4579 22.8418C32.2867 22.7294 32.0861 22.6703 31.8813 22.672C31.6765 22.6737 31.4769 22.736 31.3076 22.8512C31.1382 22.9663 31.0069 23.1291 30.9301 23.3189C30.8532 23.5087 30.8344 23.717 30.876 23.9175C30.9176 24.118 31.0177 24.3016 31.1636 24.4453C31.3096 24.5889 31.4949 24.686 31.696 24.7243C31.8972 24.7626 32.1051 24.7404 32.2937 24.6605C32.4822 24.5806 32.6428 24.4466 32.7552 24.2754C32.9054 24.0457 32.9584 23.7659 32.9027 23.4972C32.8469 23.2285 32.687 22.9928 32.4579 22.8418Z" fill="#0033AD"/>
<path d="M35.7086 19.7007C35.7969 19.8506 35.8388 20.0232 35.829 20.1968C35.8156 20.4297 35.7103 20.6478 35.5362 20.8032C35.3621 20.9585 35.1334 21.0384 34.9005 21.0252C34.7269 21.0152 34.5601 20.954 34.4213 20.8493C34.2825 20.7446 34.1779 20.601 34.1206 20.4368C34.0633 20.2726 34.056 20.0951 34.0996 19.9268C34.1432 19.7585 34.2357 19.6068 34.3655 19.4911C34.4952 19.3753 34.6564 19.3006 34.8286 19.2764C35.0008 19.2522 35.1763 19.2796 35.333 19.3551C35.4896 19.4307 35.6203 19.5509 35.7086 19.7007Z" fill="#0033AD"/>
<path d="M38.2655 19.5705C38.153 19.564 38.0411 19.591 37.944 19.6481C37.8469 19.7052 37.7689 19.7898 37.7199 19.8913C37.6708 19.9927 37.653 20.1064 37.6686 20.218C37.6842 20.3295 37.7325 20.434 37.8075 20.5181C37.8824 20.6022 37.9806 20.6622 38.0897 20.6905C38.1987 20.7188 38.3137 20.7141 38.4201 20.677C38.5265 20.6399 38.6195 20.5722 38.6874 20.4822C38.7552 20.3923 38.7949 20.2843 38.8014 20.1718C38.8098 20.0211 38.7581 19.8731 38.6577 19.7604C38.5572 19.6477 38.4162 19.5794 38.2655 19.5705Z" fill="#0033AD"/>
<path d="M35.5679 25.1C35.7112 25.0987 35.8516 25.1399 35.9714 25.2184C36.0511 25.2705 36.1196 25.3379 36.1732 25.4165C36.2268 25.4952 36.2644 25.5837 36.2838 25.6769C36.3032 25.7701 36.304 25.8662 36.2862 25.9597C36.2685 26.0532 36.2325 26.1423 36.1802 26.2219C36.1016 26.3417 35.9893 26.4355 35.8574 26.4914C35.7255 26.5474 35.58 26.563 35.4392 26.5362C35.2985 26.5095 35.1688 26.4416 35.0666 26.3412C34.9645 26.2408 34.8943 26.1123 34.8652 25.972C34.836 25.8318 34.849 25.686 34.9027 25.5532C34.9563 25.4203 35.0482 25.3064 35.1666 25.2257C35.285 25.145 35.4246 25.1013 35.5679 25.1Z" fill="#0033AD"/>
<path d="M19.8074 30.5362C19.7132 30.4744 19.6028 30.4419 19.4902 30.4429C19.3775 30.4438 19.2677 30.4781 19.1746 30.5415C19.0814 30.6048 19.0092 30.6943 18.9669 30.7988C18.9246 30.9032 18.9143 31.0178 18.9372 31.1281C18.96 31.2384 19.0151 31.3394 19.0954 31.4184C19.1756 31.4974 19.2776 31.5509 19.3882 31.572C19.4989 31.5931 19.6133 31.5809 19.717 31.537C19.8207 31.493 19.9091 31.4193 19.971 31.3252C20.012 31.2627 20.0404 31.1926 20.0544 31.1191C20.0684 31.0456 20.0678 30.9701 20.0526 30.8968C20.0374 30.8236 20.008 30.754 19.9659 30.6921C19.9238 30.6303 19.8699 30.5773 19.8074 30.5362Z" fill="#0033AD"/>
<path d="M31.5065 30.7048C31.562 30.6067 31.6453 30.5273 31.7459 30.4766C31.8126 30.4428 31.8854 30.4225 31.96 30.4169C32.0346 30.4113 32.1096 30.4205 32.1807 30.4439C32.2517 30.4673 32.3175 30.5045 32.3741 30.5534C32.4308 30.6023 32.4772 30.6618 32.5108 30.7287C32.5615 30.8293 32.5813 30.9427 32.5676 31.0545C32.5539 31.1663 32.5074 31.2716 32.4339 31.3569C32.3603 31.4423 32.2631 31.504 32.1546 31.5341C32.046 31.5642 31.931 31.5615 31.824 31.5262C31.717 31.491 31.6228 31.4248 31.5534 31.336C31.4841 31.2472 31.4426 31.1399 31.4342 31.0275C31.4259 30.9152 31.451 30.8028 31.5065 30.7048Z" fill="#0033AD"/>
<path d="M25.1301 24.7286C25.3448 24.4009 25.4441 24.0109 25.4123 23.6204C25.3804 23.2299 25.2192 22.8612 24.9542 22.5726C24.6892 22.284 24.3355 22.0921 23.9491 22.0272C23.5627 21.9622 23.1657 22.028 22.8209 22.2141C22.4761 22.4003 22.2033 22.6961 22.0456 23.0547C21.8878 23.4134 21.8542 23.8144 21.9501 24.1943C22.0459 24.5742 22.2657 24.9113 22.5747 25.1522C22.8837 25.3931 23.2642 25.524 23.656 25.5243C23.9486 25.5253 24.2368 25.453 24.4943 25.314C24.7518 25.175 24.9703 24.9738 25.1301 24.7286Z" fill="#0033AD"/>
<path d="M21.1214 27.2878C21.2953 27.2862 21.4658 27.3361 21.6113 27.4313C21.8064 27.5592 21.9427 27.7594 21.9904 27.9878C22.038 28.2162 21.993 28.4541 21.8653 28.6494C21.77 28.7948 21.6337 28.9087 21.4736 28.9767C21.3135 29.0446 21.1369 29.0636 20.9661 29.0312C20.7952 28.9988 20.6378 28.9165 20.5137 28.7947C20.3896 28.6729 20.3045 28.517 20.269 28.3467C20.2335 28.1765 20.2492 27.9996 20.3143 27.8383C20.3793 27.677 20.4907 27.5386 20.6344 27.4407C20.778 27.3427 20.9475 27.2895 21.1214 27.2878Z" fill="#0033AD"/>
<path d="M25.7169 30.8018C25.5738 30.7936 25.4316 30.8281 25.3081 30.9008C25.1847 30.9735 25.0855 31.0812 25.0232 31.2102C24.961 31.3392 24.9384 31.4838 24.9582 31.6257C24.9781 31.7676 25.0397 31.9004 25.135 32.0073C25.2304 32.1143 25.3553 32.1905 25.494 32.2264C25.6327 32.2624 25.7789 32.2564 25.9142 32.2092C26.0495 32.1621 26.1678 32.0759 26.2541 31.9615C26.3404 31.8471 26.3908 31.7097 26.3991 31.5667C26.4045 31.4717 26.3912 31.3765 26.3599 31.2866C26.3285 31.1967 26.2798 31.1139 26.2165 31.0429C26.1531 30.9718 26.0764 30.914 25.9907 30.8726C25.9049 30.8312 25.8119 30.8072 25.7169 30.8018Z" fill="#0033AD"/>
<path d="M25.1393 26.3826C25.3162 26.2792 25.5199 26.2306 25.7244 26.243C25.9979 26.2594 26.2537 26.3836 26.4357 26.5883C26.6177 26.793 26.711 27.0616 26.6952 27.3351C26.6836 27.5397 26.6116 27.7362 26.4881 27.8999C26.3647 28.0635 26.1955 28.1868 26.002 28.2541C25.8084 28.3215 25.5993 28.3299 25.4009 28.2783C25.2026 28.2267 25.024 28.1174 24.8879 27.9643C24.7517 27.8111 24.6641 27.621 24.6361 27.418C24.608 27.2149 24.6409 27.0082 24.7305 26.8239C24.8201 26.6395 24.9623 26.486 25.1393 26.3826Z" fill="#0033AD"/>
<path d="M29.959 27.3611C29.8036 27.4399 29.6752 27.5631 29.5898 27.715C29.5045 27.8669 29.4661 28.0406 29.4796 28.2143C29.4931 28.388 29.5578 28.5538 29.6655 28.6907C29.7733 28.8276 29.9192 28.9295 30.0849 28.9834C30.2505 29.0373 30.4285 29.0408 30.5962 28.9936C30.7638 28.9463 30.9137 28.8504 31.0269 28.7179C31.14 28.5854 31.2113 28.4224 31.2317 28.2493C31.2521 28.0763 31.2207 27.9012 31.1415 27.746C31.0892 27.643 31.0171 27.5513 30.9294 27.4762C30.8416 27.4011 30.7399 27.3441 30.6301 27.3083C30.5202 27.2726 30.4044 27.2588 30.2893 27.2679C30.1741 27.2769 30.0619 27.3086 29.959 27.3611Z" fill="#0033AD"/>
<path d="M52.2878 18.6833C52.2878 16.9437 51.0938 16.0066 49.3888 16.0066C47.0354 16.0066 45.9279 17.3699 45.926 20.0448V20.3854C45.926 23.1131 47.019 24.4265 49.3898 24.4265C51.1958 24.4265 52.3725 23.4883 52.3725 21.7834H54.521C54.521 24.8363 52.3051 26.268 49.3551 26.268C45.774 26.268 43.6938 24.4265 43.6938 20.2151C43.6938 16.1057 45.774 14.1611 49.3551 14.1611C52.2705 14.1611 54.521 15.6313 54.521 18.6833H52.2878Z" fill="#0033AD"/>
<path fill-rule="evenodd" clip-rule="evenodd" d="M60.426 14.3689L55.8731 26.0669H58.1245L59.0617 23.5258H64.4123L65.3744 26.0669H67.7279L63.1721 14.3689H60.426ZM59.7439 21.6814L60.9379 18.4745C61.0981 18.0515 61.3427 17.2978 61.5122 16.7757L61.5124 16.775L61.5127 16.7743L61.5136 16.7714L61.5141 16.7699C61.5962 16.5169 61.6604 16.3191 61.6884 16.2413H61.7731C61.8001 16.3167 61.8613 16.5063 61.9397 16.7497C62.1094 17.2763 62.3604 18.0547 62.5236 18.4745L63.7166 21.6804L59.7439 21.6814Z" fill="#0033AD"/>
<path fill-rule="evenodd" clip-rule="evenodd" d="M76.0834 14.3689C78.6581 14.3689 79.9032 15.7506 79.9032 17.9154C79.9032 19.5021 79.2037 20.6615 77.823 21.207L80.3246 26.0669H77.9375L75.7245 21.5447H72.0933V26.0669H69.9101V14.3689H76.0834ZM72.0933 19.706H75.9121C77.0378 19.706 77.7027 19.0248 77.7027 17.9154C77.7027 16.859 77.0888 16.2278 75.9121 16.2278H72.0933V19.706Z" fill="#0033AD"/>
<path fill-rule="evenodd" clip-rule="evenodd" d="M87.5601 14.3689H82.8859V26.0669H87.5582C91.0874 26.0669 93.235 24.2253 93.235 20.2179C93.235 16.2105 91.0893 14.3689 87.5601 14.3689ZM91.0047 20.3882C90.9874 22.9466 89.777 24.208 87.5601 24.208H85.071V16.2278H87.5601C89.7731 16.2278 91.0047 17.4902 91.0047 20.0476V20.3882Z" fill="#0033AD"/>
<path fill-rule="evenodd" clip-rule="evenodd" d="M96.6494 26.0669H94.3989L98.9538 14.3689H101.697L106.25 26.0669H103.896L102.942 23.5258H97.5875L96.6494 26.0669ZM99.4638 18.4745L98.2716 21.6814L102.244 21.6804L101.051 18.4745C100.885 18.0472 100.628 17.2484 100.458 16.7218L100.458 16.7203C100.384 16.4911 100.327 16.3136 100.301 16.2413H100.214C100.186 16.3197 100.121 16.5199 100.038 16.7757L100.038 16.7766C99.8683 17.2986 99.6238 18.0517 99.4638 18.4745Z" fill="#0033AD"/>
<path d="M116.229 21.3263C116.229 21.4579 116.24 21.7221 116.25 21.9363L116.25 21.9393C116.257 22.0841 116.262 22.2056 116.262 22.2471L116.178 22.2808C116.157 22.2531 116.086 22.1357 115.998 21.9882C115.872 21.777 115.709 21.5039 115.6 21.3436L110.519 14.3689H108.436V26.0669H110.533V19.0585C110.533 18.8716 110.519 18.5694 110.509 18.3563L110.509 18.3556C110.503 18.2399 110.499 18.1505 110.499 18.1204L110.584 18.0694C110.602 18.0923 110.642 18.1633 110.698 18.2623L110.698 18.2627C110.809 18.4586 110.982 18.7642 111.162 19.0248L116.278 26.0669H118.323V14.3689H116.227V21.3263H116.229Z" fill="#0033AD"/>
<path fill-rule="evenodd" clip-rule="evenodd" d="M121.136 20.2179C121.136 16.1085 123.352 14.165 127.018 14.165C130.684 14.165 132.918 16.1085 132.918 20.2179C132.918 24.3273 130.688 26.2709 127.018 26.2709C123.349 26.2709 121.136 24.3273 121.136 20.2179ZM127.018 24.4293C129.405 24.4293 130.684 23.0823 130.684 20.4056V20.0476C130.684 17.3699 129.389 16.0065 127.018 16.0065C124.666 16.0065 123.37 17.3699 123.37 20.0476V20.4056C123.37 23.0823 124.649 24.4293 127.018 24.4293Z" fill="#0033AD"/>
</g>
</g>
</svg>
