<svg width="146" height="32" viewBox="0 0 146 32" fill="none" xmlns="http://www.w3.org/2000/svg">
<g id="ethereum-eth-logo-full-horizontal 1" opacity="0.6" clip-path="url(#clip0_10_143)">
<g id="Layer 2">
<g id="Layer 1">
<path id="Vector" d="M36.6209 18.4124C36.619 18.5237 36.5734 18.6297 36.4939 18.7072C36.4144 18.7848 36.3075 18.8276 36.1966 18.8263H28.383C28.5834 20.7657 30.0329 22.5396 32.0836 22.5396C33.486 22.5396 34.5231 22.0074 35.301 20.884C35.3372 20.825 35.3873 20.7758 35.4469 20.7407C35.5065 20.7057 35.5737 20.6858 35.6427 20.6829C35.6942 20.6815 35.7454 20.6906 35.7933 20.7097C35.8411 20.7287 35.8846 20.7574 35.921 20.794C35.9574 20.8305 35.986 20.8741 36.005 20.9221C36.024 20.9701 36.0331 21.0215 36.0316 21.0732C36.0319 21.1445 36.0114 21.2144 35.9727 21.2742C35.1831 22.646 33.6157 23.32 32.0836 23.32C29.4555 23.32 27.5698 20.9549 27.5698 18.4361C27.5698 15.9172 29.4437 13.5521 32.0836 13.5521C34.7235 13.5521 36.6091 15.8936 36.6209 18.4124ZM35.7842 18.0458C35.6192 16.1064 34.1342 14.3326 32.0836 14.3326C30.0329 14.3326 28.5834 16.1064 28.383 18.0458H35.7842Z" fill="white"/>
<path id="Vector_2" d="M46.1198 13.7414C46.222 13.7443 46.3192 13.7864 46.3915 13.859C46.4638 13.9315 46.5057 14.0291 46.5087 14.1316C46.5102 14.1833 46.5011 14.2347 46.4821 14.2827C46.4631 14.3307 46.4345 14.3743 46.3981 14.4108C46.3616 14.4474 46.3182 14.4761 46.2703 14.4952C46.2225 14.5142 46.1713 14.5233 46.1198 14.5219H44.022V22.7879C44.0211 22.8911 43.9798 22.9899 43.9071 23.0629C43.8344 23.1358 43.736 23.1773 43.6331 23.1782C43.5309 23.1752 43.4337 23.1331 43.3614 23.0606C43.2891 22.988 43.2472 22.8905 43.2442 22.7879V14.5219H41.2289C41.1774 14.5233 41.1262 14.5142 41.0784 14.4952C41.0305 14.4761 40.9871 14.4474 40.9506 14.4108C40.9142 14.3743 40.8856 14.3307 40.8666 14.2827C40.8476 14.2347 40.8385 14.1833 40.84 14.1316C40.8409 14.0284 40.8822 13.9297 40.9549 13.8567C41.0277 13.7837 41.126 13.7423 41.2289 13.7414H43.2442V10.7259C43.2444 10.6259 43.2801 10.5294 43.3449 10.4535C43.4097 10.3776 43.4994 10.3274 43.5977 10.312C43.6527 10.3046 43.7087 10.3093 43.7617 10.3257C43.8147 10.342 43.8636 10.3697 43.905 10.4067C43.9464 10.4438 43.9793 10.4893 44.0016 10.5403C44.0238 10.5913 44.0348 10.6465 44.0338 10.7022V13.7414H46.1198Z" fill="white"/>
<path id="Vector_3" d="M58.9069 17.7384V22.7406C58.9039 22.8432 58.862 22.9407 58.7897 23.0133C58.7174 23.0858 58.6202 23.1279 58.518 23.1309C58.4665 23.1324 58.4153 23.1233 58.3674 23.1042C58.3196 23.0851 58.2761 23.0564 58.2397 23.0199C58.2033 22.9833 58.1747 22.9397 58.1557 22.8917C58.1367 22.8437 58.1276 22.7923 58.1291 22.7406V17.7384C58.1291 16.0474 57.1745 14.3681 55.3006 14.3681C52.8964 14.3681 51.8593 16.4731 52.0007 18.6372C52.0007 18.6963 52.0243 18.9446 52.0243 18.9801V22.7288C52.0241 22.8287 51.9884 22.9253 51.9236 23.0012C51.8588 23.077 51.7691 23.1272 51.6707 23.1427C51.6157 23.15 51.5598 23.1454 51.5068 23.129C51.4538 23.1127 51.4049 23.085 51.3635 23.048C51.3221 23.0109 51.2891 22.9653 51.2669 22.9143C51.2447 22.8633 51.2337 22.8081 51.2347 22.7525V6.30309C51.2356 6.19987 51.2769 6.10115 51.3496 6.02816C51.4223 5.95518 51.5207 5.91377 51.6236 5.91284C51.7258 5.91582 51.823 5.95789 51.8953 6.03044C51.9676 6.10299 52.0095 6.20053 52.0125 6.30309V15.598C52.6843 14.3918 53.8864 13.5758 55.2888 13.5758C57.5987 13.5758 58.9069 15.598 58.9069 17.7384Z" fill="white"/>
<path id="Vector_4" d="M72.9432 18.4124C72.9413 18.5237 72.8956 18.6297 72.8161 18.7072C72.7366 18.7848 72.6298 18.8276 72.5189 18.8263H64.7053C64.9056 20.7657 66.3552 22.5396 68.4058 22.5396C69.8083 22.5396 70.8454 22.0074 71.6232 20.884C71.6594 20.825 71.7095 20.7758 71.7691 20.7407C71.8287 20.7057 71.896 20.6858 71.965 20.6829C72.0165 20.6815 72.0677 20.6906 72.1155 20.7097C72.1634 20.7287 72.2068 20.7574 72.2433 20.794C72.2797 20.8305 72.3083 20.8741 72.3273 20.9221C72.3463 20.9701 72.3554 21.0215 72.3539 21.0732C72.3542 21.1445 72.3337 21.2144 72.295 21.2742C71.5054 22.646 69.9379 23.32 68.4058 23.32C65.7777 23.32 63.8921 20.9549 63.8921 18.4361C63.8921 15.9172 65.766 13.5521 68.4058 13.5521C71.0222 13.5521 72.9314 15.8936 72.9432 18.4124ZM72.0946 18.0458C71.9296 16.1064 70.4447 14.3326 68.3941 14.3326C66.3434 14.3326 64.8938 16.1064 64.6935 18.0458H72.0946Z" fill="white"/>
<path id="Vector_5" d="M82.5481 14.1079C82.5556 14.2129 82.5214 14.3166 82.4529 14.3964C82.3845 14.4761 82.2873 14.5255 82.1828 14.5336C79.8846 14.8766 78.8475 16.7569 78.8475 18.9446V22.6933C78.8473 22.7932 78.8116 22.8898 78.7468 22.9657C78.682 23.0415 78.5924 23.0917 78.494 23.1072C78.439 23.1145 78.3831 23.1098 78.33 23.0935C78.277 23.0771 78.2281 23.0495 78.1867 23.0124C78.1453 22.9754 78.1124 22.9298 78.0902 22.8788C78.0679 22.8278 78.0569 22.7726 78.0579 22.7169V14.1671C78.0581 14.0671 78.0938 13.9706 78.1586 13.8947C78.2234 13.8188 78.3131 13.7686 78.4115 13.7532C78.4665 13.7458 78.5224 13.7505 78.5754 13.7669C78.6284 13.7832 78.6773 13.8108 78.7187 13.8479C78.7601 13.885 78.7931 13.9305 78.8153 13.9815C78.8375 14.0325 78.8485 14.0877 78.8475 14.1434V15.8818C79.4957 14.782 80.7803 13.7413 82.1238 13.7413C82.3242 13.7413 82.5481 13.8832 82.5481 14.1079Z" fill="white"/>
<path id="Vector_6" d="M95.3941 18.4124C95.3922 18.5237 95.3466 18.6297 95.2671 18.7072C95.1876 18.7848 95.0807 18.8276 94.9698 18.8263H87.1562C87.3566 20.7657 88.8061 22.5396 90.8568 22.5396C92.2592 22.5396 93.2963 22.0074 94.0742 20.884C94.1104 20.825 94.1605 20.7758 94.2201 20.7407C94.2796 20.7057 94.3469 20.6858 94.4159 20.6829C94.4674 20.6815 94.5186 20.6906 94.5665 20.7097C94.6143 20.7287 94.6578 20.7574 94.6942 20.794C94.7306 20.8305 94.7592 20.8741 94.7782 20.9221C94.7972 20.9701 94.8063 21.0215 94.8048 21.0732C94.8051 21.1445 94.7846 21.2144 94.7459 21.2742C93.9563 22.646 92.3889 23.32 90.8568 23.32C88.2287 23.32 86.343 20.9549 86.343 18.4361C86.343 15.9172 88.2169 13.5521 90.8568 13.5521C93.4967 13.5521 95.3823 15.8936 95.3941 18.4124ZM94.5573 18.0458C94.3923 16.1064 92.9074 14.3326 90.8568 14.3326C88.8061 14.3326 87.3566 16.1064 87.1562 18.0458H94.5573Z" fill="white"/>
<path id="Vector_7" d="M108.028 14.2025V22.7879C108.025 22.8905 107.983 22.988 107.911 23.0606C107.838 23.1331 107.741 23.1752 107.639 23.1781C107.587 23.1796 107.536 23.1705 107.488 23.1514C107.44 23.1323 107.397 23.1037 107.361 23.0671C107.324 23.0306 107.296 22.987 107.277 22.939C107.257 22.891 107.248 22.8395 107.25 22.7879V21.156C106.602 22.445 105.459 23.3792 103.997 23.3792C101.675 23.3792 100.391 21.357 100.391 19.2166V14.1907C100.392 14.0875 100.433 13.9888 100.506 13.9158C100.579 13.8428 100.677 13.8014 100.78 13.8005C100.882 13.8034 100.979 13.8455 101.052 13.9181C101.124 13.9906 101.166 14.0882 101.169 14.1907V19.2166C101.169 20.9076 102.123 22.5869 103.997 22.5869C106.625 22.5869 107.25 20.1153 107.25 17.3836V14.1789C107.251 14.1156 107.267 14.0535 107.296 13.9977C107.326 13.9419 107.369 13.894 107.421 13.8581C107.473 13.8222 107.532 13.7993 107.595 13.7914C107.657 13.7834 107.721 13.7906 107.78 13.8123C107.854 13.8468 107.917 13.902 107.961 13.9711C108.005 14.0403 108.028 14.1206 108.028 14.2025Z" fill="white"/>
<path id="Vector_8" d="M127.815 17.7029V22.7288C127.812 22.8314 127.77 22.9289 127.698 23.0014C127.626 23.074 127.529 23.1161 127.426 23.119C127.375 23.1205 127.324 23.1114 127.276 23.0923C127.228 23.0732 127.184 23.0445 127.148 23.008C127.112 22.9715 127.083 22.9279 127.064 22.8799C127.045 22.8318 127.036 22.7804 127.037 22.7288V17.7029C127.037 16.0119 126.083 14.3563 124.209 14.3563C121.852 14.3563 120.956 16.887 120.956 18.85V22.7288C120.953 22.8314 120.911 22.9289 120.839 23.0014C120.767 23.074 120.669 23.1161 120.567 23.119C120.516 23.1205 120.465 23.1114 120.417 23.0923C120.369 23.0732 120.325 23.0445 120.289 23.008C120.253 22.9715 120.224 22.9279 120.205 22.8799C120.186 22.8318 120.177 22.7804 120.178 22.7288V17.7029C120.178 16.0119 119.224 14.3563 117.35 14.3563C114.969 14.3563 113.991 16.2366 114.074 18.7436C114.074 18.8027 114.097 18.9091 114.074 18.9446V22.717C114.073 22.8169 114.038 22.9135 113.973 22.9893C113.908 23.0652 113.818 23.1154 113.72 23.1309C113.665 23.1382 113.609 23.1335 113.556 23.1172C113.503 23.1008 113.454 23.0732 113.413 23.0361C113.371 22.9991 113.338 22.9535 113.316 22.9025C113.294 22.8515 113.283 22.7963 113.284 22.7406V14.1671C113.284 14.0672 113.32 13.9706 113.385 13.8947C113.45 13.8189 113.539 13.7687 113.638 13.7532C113.693 13.7459 113.748 13.7505 113.801 13.7669C113.855 13.7832 113.903 13.8109 113.945 13.8479C113.986 13.885 114.019 13.9306 114.041 13.9816C114.064 14.0326 114.075 14.0878 114.074 14.1434V15.5743C114.745 14.3681 115.947 13.5758 117.35 13.5758C118.941 13.5758 120.178 14.5928 120.685 16.071C121.333 14.6046 122.594 13.5758 124.209 13.5758C126.507 13.5758 127.815 15.5743 127.815 17.7029Z" fill="white"/>
<path id="Vector_9" opacity="0.6" d="M10.3162 11.8374L0.534424 16.2956L10.3162 22.102L20.1097 16.2956L10.3162 11.8374Z" fill="black"/>
<path id="Vector_10" opacity="0.45" d="M0.534424 16.2956L10.3162 22.102V0L0.534424 16.2956Z" fill="white"/>
<path id="Vector_11" opacity="0.8" d="M10.3162 0V22.102L20.1097 16.2956L10.3162 0Z" fill="white"/>
<path id="Vector_12" opacity="0.45" d="M0.534424 18.1641L10.3162 32V23.9586L0.534424 18.1641Z" fill="white"/>
<path id="Vector_13" opacity="0.8" d="M10.3162 23.9586V32L20.1097 18.1641L10.3162 23.9586Z" fill="white"/>
</g>
</g>
</g>
<defs>
<clipPath id="clip0_10_143">
<rect width="145" height="32" fill="white" transform="translate(0.5)"/>
</clipPath>
</defs>
</svg>
