<svg width="146" height="32" viewBox="0 0 146 32" fill="none" xmlns="http://www.w3.org/2000/svg">
<g id="ethereum-eth-logo-full-horizontal 1" opacity="0.6" clip-path="url(#clip0_95_53041)">
<g id="Layer 2">
<g id="Layer 1">
<path id="Vector" d="M36.6208 18.4123C36.6189 18.5236 36.5732 18.6295 36.4937 18.7071C36.4142 18.7846 36.3074 18.8275 36.1965 18.8262H28.3829C28.5832 20.7656 30.0328 22.5394 32.0835 22.5394C33.4859 22.5394 34.523 22.0073 35.3008 20.8839C35.337 20.8248 35.3872 20.7756 35.4467 20.7406C35.5063 20.7055 35.5736 20.6857 35.6426 20.6828C35.6941 20.6813 35.7453 20.6904 35.7931 20.7095C35.841 20.7286 35.8845 20.7573 35.9209 20.7938C35.9573 20.8304 35.9859 20.874 36.0049 20.922C36.0239 20.97 36.033 21.0214 36.0315 21.0731C36.0318 21.1444 36.0113 21.2143 35.9726 21.2741C35.183 22.6459 33.6155 23.3199 32.0835 23.3199C29.4553 23.3199 27.5697 20.9548 27.5697 18.436C27.5697 15.9171 29.4436 13.552 32.0835 13.552C34.7234 13.552 36.609 15.8935 36.6208 18.4123ZM35.784 18.0457C35.619 16.1063 34.1341 14.3325 32.0835 14.3325C30.0328 14.3325 28.5832 16.1063 28.3829 18.0457H35.784Z" fill="white"/>
<path id="Vector_2" d="M46.1198 13.7414C46.222 13.7443 46.3192 13.7864 46.3915 13.859C46.4638 13.9315 46.5057 14.0291 46.5087 14.1316C46.5102 14.1833 46.5011 14.2347 46.4821 14.2827C46.4631 14.3307 46.4345 14.3743 46.3981 14.4108C46.3616 14.4474 46.3182 14.4761 46.2703 14.4952C46.2225 14.5142 46.1713 14.5233 46.1198 14.5219H44.022V22.7879C44.0211 22.8911 43.9798 22.9899 43.9071 23.0629C43.8344 23.1358 43.736 23.1773 43.6331 23.1782C43.5309 23.1752 43.4337 23.1331 43.3614 23.0606C43.2891 22.988 43.2472 22.8905 43.2442 22.7879V14.5219H41.2289C41.1774 14.5233 41.1262 14.5142 41.0784 14.4952C41.0305 14.4761 40.9871 14.4474 40.9506 14.4108C40.9142 14.3743 40.8856 14.3307 40.8666 14.2827C40.8476 14.2347 40.8385 14.1833 40.84 14.1316C40.8409 14.0284 40.8822 13.9297 40.9549 13.8567C41.0277 13.7837 41.126 13.7423 41.2289 13.7414H43.2442V10.7259C43.2444 10.6259 43.2801 10.5294 43.3449 10.4535C43.4097 10.3776 43.4994 10.3274 43.5977 10.312C43.6527 10.3046 43.7087 10.3093 43.7617 10.3257C43.8147 10.342 43.8636 10.3697 43.905 10.4067C43.9464 10.4438 43.9793 10.4893 44.0016 10.5403C44.0238 10.5913 44.0348 10.6465 44.0338 10.7022V13.7414H46.1198Z" fill="white"/>
<path id="Vector_3" d="M58.9068 17.7384V22.7406C58.9039 22.8432 58.8619 22.9407 58.7896 23.0133C58.7173 23.0858 58.6201 23.1279 58.5179 23.1309C58.4664 23.1324 58.4152 23.1233 58.3674 23.1042C58.3195 23.0851 58.2761 23.0564 58.2396 23.0199C58.2032 22.9833 58.1746 22.9397 58.1556 22.8917C58.1366 22.8437 58.1275 22.7923 58.129 22.7406V17.7384C58.129 16.0474 57.1744 14.3681 55.3005 14.3681C52.8963 14.3681 51.8592 16.4731 52.0007 18.6372C52.0007 18.6963 52.0242 18.9446 52.0242 18.9801V22.7288C52.024 22.8287 51.9883 22.9253 51.9235 23.0012C51.8587 23.077 51.7691 23.1272 51.6707 23.1427C51.6157 23.15 51.5598 23.1454 51.5067 23.129C51.4537 23.1127 51.4048 23.085 51.3634 23.048C51.322 23.0109 51.2891 22.9653 51.2669 22.9143C51.2446 22.8633 51.2336 22.8081 51.2346 22.7525V6.30309C51.2355 6.19987 51.2768 6.10115 51.3495 6.02816C51.4223 5.95518 51.5207 5.91377 51.6235 5.91284C51.7257 5.91582 51.823 5.95789 51.8953 6.03044C51.9676 6.10299 52.0095 6.20053 52.0124 6.30309V15.598C52.6842 14.3918 53.8863 13.5758 55.2888 13.5758C57.5987 13.5758 58.9068 15.598 58.9068 17.7384Z" fill="white"/>
<path id="Vector_4" d="M72.9431 18.4123C72.9412 18.5236 72.8956 18.6295 72.8161 18.7071C72.7366 18.7846 72.6297 18.8275 72.5188 18.8262H64.7052C64.9056 20.7656 66.3552 22.5394 68.4058 22.5394C69.8082 22.5394 70.8453 22.0073 71.6232 20.8839C71.6594 20.8248 71.7095 20.7756 71.7691 20.7406C71.8287 20.7055 71.8959 20.6857 71.9649 20.6828C72.0164 20.6813 72.0676 20.6904 72.1155 20.7095C72.1633 20.7286 72.2068 20.7573 72.2432 20.7938C72.2796 20.8304 72.3082 20.874 72.3272 20.922C72.3463 20.97 72.3553 21.0214 72.3538 21.0731C72.3541 21.1444 72.3336 21.2143 72.2949 21.2741C71.5053 22.6459 69.9379 23.3199 68.4058 23.3199C65.7777 23.3199 63.892 20.9548 63.892 18.436C63.892 15.9171 65.7659 13.552 68.4058 13.552C71.0221 13.552 72.9313 15.8935 72.9431 18.4123ZM72.0946 18.0457C71.9296 16.1063 70.4446 14.3325 68.394 14.3325C66.3434 14.3325 64.8938 16.1063 64.6934 18.0457H72.0946Z" fill="white"/>
<path id="Vector_5" d="M82.5481 14.1078C82.5556 14.2128 82.5214 14.3165 82.4529 14.3962C82.3845 14.476 82.2873 14.5254 82.1828 14.5335C79.8846 14.8765 78.8475 16.7567 78.8475 18.9445V22.6932C78.8473 22.7931 78.8116 22.8897 78.7468 22.9655C78.682 23.0414 78.5924 23.0916 78.494 23.1071C78.439 23.1144 78.3831 23.1097 78.33 23.0934C78.277 23.077 78.2281 23.0494 78.1867 23.0123C78.1453 22.9753 78.1124 22.9297 78.0902 22.8787C78.0679 22.8277 78.0569 22.7725 78.0579 22.7168V14.1669C78.0581 14.067 78.0938 13.9704 78.1586 13.8946C78.2234 13.8187 78.3131 13.7685 78.4115 13.753C78.4665 13.7457 78.5224 13.7504 78.5754 13.7667C78.6284 13.7831 78.6773 13.8107 78.7187 13.8478C78.7601 13.8848 78.7931 13.9304 78.8153 13.9814C78.8375 14.0324 78.8485 14.0876 78.8475 14.1433V15.8816C79.4957 14.7819 80.7803 13.7412 82.1238 13.7412C82.3242 13.7412 82.5481 13.8831 82.5481 14.1078Z" fill="white"/>
<path id="Vector_6" d="M95.394 18.4123C95.3921 18.5236 95.3464 18.6295 95.2669 18.7071C95.1874 18.7846 95.0806 18.8275 94.9697 18.8262H87.1561C87.3564 20.7656 88.806 22.5394 90.8567 22.5394C92.2591 22.5394 93.2962 22.0073 94.074 20.8839C94.1102 20.8248 94.1603 20.7756 94.2199 20.7406C94.2795 20.7055 94.3468 20.6857 94.4158 20.6828C94.4673 20.6813 94.5185 20.6904 94.5663 20.7095C94.6142 20.7286 94.6577 20.7573 94.6941 20.7938C94.7305 20.8304 94.7591 20.874 94.7781 20.922C94.7971 20.97 94.8062 21.0214 94.8047 21.0731C94.805 21.1444 94.7845 21.2143 94.7458 21.2741C93.9562 22.6459 92.3887 23.3199 90.8567 23.3199C88.2285 23.3199 86.3429 20.9548 86.3429 18.436C86.3429 15.9171 88.2168 13.552 90.8567 13.552C93.4966 13.552 95.3822 15.8935 95.394 18.4123ZM94.5572 18.0457C94.3922 16.1063 92.9073 14.3325 90.8567 14.3325C88.806 14.3325 87.3564 16.1063 87.1561 18.0457H94.5572Z" fill="white"/>
<path id="Vector_7" d="M108.028 14.2024V22.7878C108.025 22.8903 107.983 22.9879 107.911 23.0604C107.838 23.133 107.741 23.175 107.639 23.178C107.587 23.1795 107.536 23.1704 107.488 23.1513C107.441 23.1322 107.397 23.1035 107.361 23.067C107.324 23.0305 107.296 22.9869 107.277 22.9388C107.258 22.8908 107.249 22.8394 107.25 22.7878V21.1559C106.602 22.4448 105.459 23.3791 103.997 23.3791C101.676 23.3791 100.391 21.3569 100.391 19.2165V14.1906C100.392 14.0874 100.433 13.9887 100.506 13.9157C100.579 13.8427 100.677 13.8013 100.78 13.8003C100.882 13.8033 100.979 13.8454 101.052 13.9179C101.124 13.9905 101.166 14.088 101.169 14.1906V19.2165C101.169 20.9075 102.123 22.5867 103.997 22.5867C106.625 22.5867 107.25 20.1152 107.25 17.3835V14.1788C107.251 14.1155 107.267 14.0534 107.297 13.9976C107.326 13.9418 107.369 13.8939 107.421 13.858C107.473 13.8221 107.532 13.7992 107.595 13.7912C107.658 13.7833 107.721 13.7904 107.78 13.8122C107.854 13.8467 107.917 13.9018 107.961 13.971C108.005 14.0401 108.028 14.1204 108.028 14.2024Z" fill="white"/>
<path id="Vector_8" d="M127.815 17.7028V22.7287C127.812 22.8312 127.77 22.9288 127.698 23.0013C127.626 23.0739 127.529 23.1159 127.426 23.1189C127.375 23.1204 127.324 23.1113 127.276 23.0922C127.228 23.0731 127.184 23.0444 127.148 23.0079C127.112 22.9714 127.083 22.9277 127.064 22.8797C127.045 22.8317 127.036 22.7803 127.037 22.7287V17.7028C127.037 16.0117 126.083 14.3562 124.209 14.3562C121.852 14.3562 120.956 16.8868 120.956 18.8499V22.7287C120.953 22.8312 120.911 22.9288 120.839 23.0013C120.767 23.0739 120.669 23.1159 120.567 23.1189C120.516 23.1204 120.465 23.1113 120.417 23.0922C120.369 23.0731 120.325 23.0444 120.289 23.0079C120.253 22.9714 120.224 22.9277 120.205 22.8797C120.186 22.8317 120.177 22.7803 120.178 22.7287V17.7028C120.178 16.0117 119.224 14.3562 117.35 14.3562C114.969 14.3562 113.991 16.2364 114.074 18.7435C114.074 18.8026 114.097 18.909 114.074 18.9445V22.7168C114.073 22.8168 114.038 22.9133 113.973 22.9892C113.908 23.0651 113.818 23.1153 113.72 23.1307C113.665 23.1381 113.609 23.1334 113.556 23.117C113.503 23.1007 113.454 23.0731 113.413 23.036C113.371 22.999 113.338 22.9534 113.316 22.9024C113.294 22.8514 113.283 22.7962 113.284 22.7405V14.167C113.284 14.067 113.32 13.9705 113.385 13.8946C113.45 13.8187 113.539 13.7685 113.638 13.7531C113.693 13.7457 113.748 13.7504 113.801 13.7668C113.855 13.7831 113.903 13.8108 113.945 13.8478C113.986 13.8849 114.019 13.9304 114.041 13.9814C114.064 14.0324 114.075 14.0877 114.074 14.1433V15.5742C114.745 14.368 115.947 13.5757 117.35 13.5757C118.941 13.5757 120.178 14.5927 120.685 16.0709C121.333 14.6045 122.594 13.5757 124.209 13.5757C126.507 13.5757 127.815 15.5742 127.815 17.7028Z" fill="white"/>
<path id="Vector_9" opacity="0.6" d="M10.3162 11.8374L0.534424 16.2956L10.3162 22.102L20.1097 16.2956L10.3162 11.8374Z" fill="black"/>
<path id="Vector_10" opacity="0.45" d="M0.534424 16.2956L10.3162 22.102V0L0.534424 16.2956Z" fill="white"/>
<path id="Vector_11" opacity="0.8" d="M10.3162 0V22.102L20.1097 16.2956L10.3162 0Z" fill="white"/>
<path id="Vector_12" opacity="0.45" d="M0.534424 18.1641L10.3162 32V23.9586L0.534424 18.1641Z" fill="white"/>
<path id="Vector_13" opacity="0.8" d="M10.3162 23.9586V32L20.1097 18.1641L10.3162 23.9586Z" fill="white"/>
</g>
</g>
</g>
<defs>
<clipPath id="clip0_95_53041">
<rect width="145" height="32" fill="white" transform="translate(0.5)"/>
</clipPath>
</defs>
</svg>
