<svg width="30" height="30" viewBox="0 0 30 30" fill="none" xmlns="http://www.w3.org/2000/svg">
<g id="iconoir:design-nib">
<g id="Group">
<path id="Vector" d="M4.12011 25.7525L12.0751 17.7975M22.0926 14.26L19.7114 21.4037C19.6734 21.5182 19.6083 21.6219 19.5217 21.7059C19.4351 21.7899 19.3295 21.8518 19.2139 21.8862L4.61636 26.225C4.48485 26.264 4.34514 26.2663 4.21245 26.2315C4.07975 26.1966 3.95915 26.1261 3.86377 26.0275C3.76838 25.9289 3.70187 25.806 3.67148 25.6722C3.64108 25.5384 3.64795 25.3989 3.69136 25.2687L8.43136 11.0512C8.46533 10.9491 8.52087 10.8556 8.5942 10.7768C8.66753 10.6981 8.75694 10.6361 8.85636 10.595L15.5901 7.82248C15.727 7.76594 15.8776 7.7512 16.0228 7.78012C16.1681 7.80904 16.3016 7.88032 16.4064 7.98498L21.9114 13.4912C22.0101 13.5898 22.0794 13.714 22.1114 13.8498C22.1434 13.9856 22.1369 14.1277 22.0926 14.26Z" stroke="white" stroke-width="1.5" stroke-linecap="round" stroke-linejoin="round"/>
<path id="Vector_2" d="M22.2402 13.82L25.7752 10.2837C26.2438 9.81492 26.5071 9.17915 26.5071 8.51624C26.5071 7.85333 26.2438 7.21756 25.7752 6.74874L23.1252 4.09624C22.893 3.86398 22.6174 3.67975 22.314 3.55405C22.0106 3.42835 21.6854 3.36365 21.357 3.36365C21.0287 3.36365 20.7035 3.42835 20.4001 3.55405C20.0967 3.67975 19.8211 3.86398 19.5889 4.09624L16.0539 7.63249M14.7264 15.145C14.5523 14.9709 14.3455 14.8328 14.118 14.7386C13.8904 14.6445 13.6466 14.596 13.4004 14.5961C13.1541 14.5961 12.9103 14.6447 12.6828 14.739C12.4553 14.8333 12.2486 14.9714 12.0745 15.1456C11.9005 15.3198 11.7624 15.5265 11.6682 15.7541C11.574 15.9816 11.5256 16.2254 11.5256 16.4717C11.5257 16.7179 11.5743 16.9618 11.6685 17.1892C11.7628 17.4167 11.901 17.6234 12.0752 17.7975C12.4269 18.1491 12.9039 18.3465 13.4012 18.3464C13.8986 18.3463 14.3755 18.1486 14.727 17.7969C15.0786 17.4451 15.2761 16.9681 15.276 16.4708C15.2758 15.9735 15.0782 15.4966 14.7264 15.145Z" stroke="white" stroke-width="1.5" stroke-linecap="round" stroke-linejoin="round"/>
</g>
</g>
</svg>
