<svg width="146" height="41" viewBox="0 0 146 41" fill="none" xmlns="http://www.w3.org/2000/svg">
<g id="Logotype">
<g id="ICP Logotype">
<g id="ICP">
<path d="M94.7366 22.5872C95.8736 22.5872 96.5246 21.9259 96.7863 21.2842C96.846 21.1382 96.7553 20.9811 96.6044 20.9355L96.3205 20.8497C96.1625 20.8019 95.9985 20.8949 95.9192 21.0398C95.73 21.3866 95.3593 21.7076 94.7366 21.7076C93.9938 21.7076 93.3031 21.1668 93.3031 20.1829C93.3031 19.1339 94.0329 18.6387 94.7236 18.6387C95.3487 18.6387 95.7042 18.9359 95.8829 19.2769C95.9622 19.428 96.1316 19.5271 96.2943 19.4758L96.577 19.3866C96.7257 19.3397 96.8147 19.1845 96.7571 19.0396C96.4959 18.3813 95.851 17.7721 94.7236 17.7721C93.4856 17.7721 92.3714 18.7104 92.3714 20.1829C92.3714 21.6555 93.4465 22.5872 94.7366 22.5872Z" fill="white"/>
<path d="M42.8324 22.1933C42.8324 22.3569 42.6997 22.4895 42.5362 22.4895H42.2163C42.0527 22.4895 41.9202 22.3569 41.9202 22.1933V18.166C41.9202 18.0024 42.0527 17.8698 42.2163 17.8698H42.5362C42.6997 17.8698 42.8324 18.0024 42.8324 18.166V22.1933Z" fill="white"/>
<path d="M49.8085 22.1933C49.8085 22.3569 49.6759 22.4895 49.5123 22.4895H49.0257C48.9248 22.4895 48.8308 22.4381 48.7763 22.353L46.7656 19.2121V22.1933C46.7656 22.3569 46.6331 22.4895 46.4694 22.4895H46.1626C45.9991 22.4895 45.8664 22.3569 45.8664 22.1933V18.166C45.8664 18.0024 45.9991 17.8698 46.1626 17.8698H46.8235C46.9254 17.8698 47.02 17.9221 47.0742 18.0083L48.9093 20.9257V18.166C48.9093 18.0024 49.042 17.8698 49.2055 17.8698H49.5123C49.6759 17.8698 49.8085 18.0024 49.8085 18.166V22.1933Z" fill="white"/>
<path d="M55.94 18.7234C56.1036 18.7234 56.2362 18.5908 56.2362 18.4272V18.166C56.2362 18.0024 56.1036 17.8698 55.94 17.8698H52.7076C52.5441 17.8698 52.4114 18.0024 52.4114 18.166V18.4272C52.4114 18.5908 52.5441 18.7234 52.7076 18.7234H53.8709V22.1933C53.8709 22.3569 54.0036 22.4895 54.1671 22.4895H54.4805C54.6441 22.4895 54.7766 22.3569 54.7766 22.1933V18.7234H55.94Z" fill="white"/>
<path d="M61.7299 22.1933C61.7299 22.3569 61.5972 22.4895 61.4338 22.4895H59.1331C58.9695 22.4895 58.8369 22.3569 58.8369 22.1933V18.166C58.8369 18.0024 58.9695 17.8698 59.1331 17.8698H61.4338C61.5972 17.8698 61.7299 18.0024 61.7299 18.166V18.4207C61.7299 18.5843 61.5972 18.7169 61.4338 18.7169H59.7361V19.7724H61.2448C61.4083 19.7724 61.541 19.905 61.541 20.0686V20.2777C61.541 20.4413 61.4083 20.5739 61.2448 20.5739H59.7361V21.6425H61.4338C61.5972 21.6425 61.7299 21.7751 61.7299 21.9386V22.1933Z" fill="white"/>
<path fill-rule="evenodd" clip-rule="evenodd" d="M66.763 22.3277C66.8135 22.427 66.9155 22.4895 67.0269 22.4895H67.3592C67.5818 22.4895 67.7248 22.2531 67.6215 22.0559L66.8584 20.5999C67.4644 20.424 67.8423 19.9353 67.8423 19.2903C67.8423 18.4888 67.2689 17.8698 66.3697 17.8698H64.861C64.6974 17.8698 64.5648 18.0024 64.5648 18.166V22.1933C64.5648 22.3569 64.6974 22.4895 64.861 22.4895H65.1744C65.338 22.4895 65.4705 22.3569 65.4705 22.1933V20.7107H65.9397L66.763 22.3277ZM65.4705 19.9353V18.6517H66.2003C66.6564 18.6517 66.9235 18.9058 66.9235 19.2968C66.9235 19.6747 66.6564 19.9353 66.2003 19.9353H65.4705Z" fill="white"/>
<path d="M74.5659 22.1933C74.5659 22.3569 74.4333 22.4895 74.2698 22.4895H73.7832C73.6822 22.4895 73.5881 22.4381 73.5338 22.353L71.5231 19.2121V22.1933C71.5231 22.3569 71.3904 22.4895 71.2269 22.4895H70.9201C70.7564 22.4895 70.6239 22.3569 70.6239 22.1933V18.166C70.6239 18.0024 70.7564 17.8698 70.9201 17.8698H71.581C71.6829 17.8698 71.7775 17.9221 71.8317 18.0083L73.6668 20.9257V18.166C73.6668 18.0024 73.7993 17.8698 73.9629 17.8698H74.2698C74.4333 17.8698 74.5659 18.0024 74.5659 18.166V22.1933Z" fill="white"/>
<path d="M80.2022 22.4895C80.3658 22.4895 80.4983 22.3569 80.4983 22.1933V21.9386C80.4983 21.7751 80.3658 21.6425 80.2022 21.6425H78.5045V20.5739H80.0132C80.1768 20.5739 80.3094 20.4413 80.3094 20.2777V20.0686C80.3094 19.905 80.1768 19.7724 80.0132 19.7724H78.5045V18.7169H80.2022C80.3658 18.7169 80.4983 18.5843 80.4983 18.4207V18.166C80.4983 18.0024 80.3658 17.8698 80.2022 17.8698H77.9015C77.738 17.8698 77.6053 18.0024 77.6053 18.166V22.1933C77.6053 22.3569 77.738 22.4895 77.9015 22.4895H80.2022Z" fill="white"/>
<path d="M86.7216 18.4272C86.7216 18.5908 86.5889 18.7234 86.4254 18.7234H85.262V22.1933C85.262 22.3569 85.1293 22.4895 84.9658 22.4895H84.6525C84.4889 22.4895 84.3563 22.3569 84.3563 22.1933V18.7234H83.193C83.0293 18.7234 82.8968 18.5908 82.8968 18.4272V18.166C82.8968 18.0024 83.0293 17.8698 83.193 17.8698H86.4254C86.5889 17.8698 86.7216 18.0024 86.7216 18.166V18.4272Z" fill="white"/>
<path fill-rule="evenodd" clip-rule="evenodd" d="M101.623 22.5872C100.372 22.5872 99.2513 21.6685 99.2513 20.1829C99.2513 18.6908 100.372 17.7721 101.623 17.7721C102.881 17.7721 104.001 18.6908 104.001 20.1829C104.001 21.6685 102.881 22.5872 101.623 22.5872ZM101.623 18.6387C100.913 18.6387 100.183 19.1339 100.183 20.1764C100.183 21.2189 100.913 21.7141 101.623 21.7141C102.34 21.7141 103.07 21.2189 103.07 20.1764C103.07 19.1339 102.34 18.6387 101.623 18.6387Z" fill="white"/>
<path d="M111.619 22.4895C111.782 22.4895 111.915 22.3569 111.915 22.1933V18.166C111.915 18.0024 111.782 17.8698 111.619 17.8698H110.889C110.769 17.8698 110.66 17.9429 110.615 18.0545L109.335 21.2059L108.023 18.0522C107.977 17.9418 107.869 17.8698 107.749 17.8698H107.057C106.893 17.8698 106.761 18.0024 106.761 18.166V22.1933C106.761 22.3569 106.893 22.4895 107.057 22.4895H107.325C107.488 22.4895 107.621 22.3569 107.621 22.1933V19.2772L108.874 22.3066C108.92 22.4173 109.028 22.4895 109.148 22.4895H109.501C109.621 22.4895 109.729 22.4169 109.775 22.3058L111.029 19.2512V22.1933C111.029 22.3569 111.161 22.4895 111.325 22.4895H111.619Z" fill="white"/>
<path fill-rule="evenodd" clip-rule="evenodd" d="M118.196 19.3098C118.196 20.1504 117.59 20.7498 116.678 20.7498H115.85V22.1933C115.85 22.3569 115.718 22.4895 115.554 22.4895H115.247C115.084 22.4895 114.951 22.3569 114.951 22.1933V18.166C114.951 18.0024 115.084 17.8698 115.247 17.8698H116.678C117.59 17.8698 118.196 18.4758 118.196 19.3098ZM115.857 18.6517V19.9744H116.567C117.017 19.9744 117.29 19.7138 117.29 19.3163C117.29 18.9058 117.017 18.6517 116.567 18.6517H115.857Z" fill="white"/>
<path d="M122.585 22.5938C123.575 22.5938 124.363 21.9878 124.363 20.8541V18.166C124.363 18.0024 124.231 17.8698 124.067 17.8698H123.76C123.597 17.8698 123.464 18.0024 123.464 18.166V20.7889C123.464 21.3949 123.132 21.7141 122.585 21.7141C122.05 21.7141 121.711 21.3949 121.711 20.7889V18.166C121.711 18.0024 121.579 17.8698 121.415 17.8698H121.108C120.945 17.8698 120.812 18.0024 120.812 18.166V20.8541C120.812 21.9878 121.601 22.5938 122.585 22.5938Z" fill="white"/>
<path d="M130.75 18.4272C130.75 18.5908 130.617 18.7234 130.454 18.7234H129.291V22.1933C129.291 22.3569 129.158 22.4895 128.994 22.4895H128.681C128.517 22.4895 128.385 22.3569 128.385 22.1933V18.7234H127.222C127.058 18.7234 126.925 18.5908 126.925 18.4272V18.166C126.925 18.0024 127.058 17.8698 127.222 17.8698H130.454C130.617 17.8698 130.75 18.0024 130.75 18.166V18.4272Z" fill="white"/>
<path d="M135.948 22.4895C136.111 22.4895 136.244 22.3569 136.244 22.1933V21.9386C136.244 21.7751 136.111 21.6425 135.948 21.6425H134.25V20.5739H135.759C135.922 20.5739 136.055 20.4413 136.055 20.2777V20.0686C136.055 19.905 135.922 19.7724 135.759 19.7724H134.25V18.7169H135.948C136.111 18.7169 136.244 18.5843 136.244 18.4207V18.166C136.244 18.0024 136.111 17.8698 135.948 17.8698H133.647C133.483 17.8698 133.351 18.0024 133.351 18.166V22.1933C133.351 22.3569 133.483 22.4895 133.647 22.4895H135.948Z" fill="white"/>
<path fill-rule="evenodd" clip-rule="evenodd" d="M141.541 22.4895C141.43 22.4895 141.327 22.427 141.277 22.3277L140.454 20.7107H139.985V22.1933C139.985 22.3569 139.852 22.4895 139.688 22.4895H139.375C139.212 22.4895 139.079 22.3569 139.079 22.1933V17.8698H140.884C141.783 17.8698 142.356 18.4888 142.356 19.2903C142.356 19.9353 141.978 20.424 141.372 20.5999L142.135 22.0559C142.239 22.2531 142.096 22.4895 141.873 22.4895H141.541ZM139.985 18.6517V19.9353H140.714C141.17 19.9353 141.438 19.6747 141.438 19.2968C141.438 18.9058 141.17 18.6517 140.714 18.6517H139.985Z" fill="white"/>
</g>
<g id="ICP Symbol">
<path id="Element" d="M29.1526 12.2716C27.2454 12.2716 25.1663 13.2489 22.9688 15.174C21.9263 16.0861 21.026 17.0635 20.3508 17.8453C20.3508 17.8453 20.3508 17.8453 20.3568 17.8512V17.8453C20.3568 17.8453 21.4228 19.0063 22.6016 20.2501C23.2354 19.4979 24.1476 18.4732 25.1959 17.5492C27.1506 15.8374 28.424 15.4761 29.1526 15.4761C31.8951 15.4761 34.1222 17.6499 34.1222 20.3212C34.1222 22.9748 31.8892 25.1486 29.1526 25.1664C29.0282 25.1664 28.8683 25.1486 28.6669 25.1072C29.4665 25.4507 30.3254 25.6995 31.1429 25.6995C36.1656 25.6995 37.1489 22.4239 37.2141 22.187C37.3622 21.5888 37.4392 20.9609 37.4392 20.3153C37.4392 15.8847 33.7194 12.2716 29.1526 12.2716Z" fill="url(#paint0_linear_207_2270)"/>
<path id="Element_2" d="M11.6081 28.3827C13.5154 28.3827 15.5944 27.4053 17.7919 25.4803C18.8344 24.5681 19.7348 23.5908 20.4099 22.8089C20.4099 22.8089 20.4099 22.8089 20.404 22.803V22.8089C20.404 22.8089 19.3379 21.648 18.1591 20.4041C17.5253 21.1564 16.6132 22.1811 15.5648 23.1051C13.6101 24.8169 12.3366 25.1782 11.6081 25.1782C8.86564 25.1723 6.63852 22.9985 6.63852 20.3271C6.63852 17.6735 8.87156 15.4997 11.6081 15.4819C11.7325 15.4819 11.8924 15.4997 12.0938 15.5412C11.2942 15.1976 10.4353 14.9489 9.61788 14.9489C4.59502 14.9489 3.61769 18.2244 3.54661 18.4554C3.39853 19.0596 3.32153 19.6815 3.32153 20.3271C3.32153 24.7695 7.0413 28.3827 11.6081 28.3827Z" fill="url(#paint1_linear_207_2270)"/>
<path id="Element_3" d="M31.1309 25.6284C28.5601 25.5632 25.8888 23.5375 25.3438 23.034C23.9342 21.7309 20.6822 18.2066 20.4277 17.9283C18.0465 15.2569 14.8183 12.2716 11.608 12.2716H11.6021H11.5961C7.69866 12.2894 4.42314 14.9311 3.54651 18.4554C3.61166 18.2244 4.897 14.8837 9.61186 15.0022C12.1825 15.0674 14.8657 17.1227 15.4166 17.6262C16.8263 18.9293 20.0782 22.4536 20.3329 22.732C22.714 25.3974 25.9421 28.3827 29.1524 28.3827H29.1584H29.1643C33.0618 28.3649 36.3432 25.7232 37.2139 22.1989C37.1428 22.4299 35.8515 25.7409 31.1309 25.6284Z" fill="#29ABE2"/>
</g>
</g>
</g>
<defs>
<linearGradient id="paint0_linear_207_2270" x1="24.839" y1="13.3339" x2="36.1055" y2="25.0008" gradientUnits="userSpaceOnUse">
<stop offset="0.21" stop-color="#F15A24"/>
<stop offset="0.6841" stop-color="#FBB03B"/>
</linearGradient>
<linearGradient id="paint1_linear_207_2270" x1="15.9217" y1="27.3203" x2="4.65515" y2="15.6535" gradientUnits="userSpaceOnUse">
<stop offset="0.21" stop-color="#ED1E79"/>
<stop offset="0.8929" stop-color="#522785"/>
</linearGradient>
</defs>
</svg>
