<svg width="30" height="30" viewBox="0 0 30 30" fill="none" xmlns="http://www.w3.org/2000/svg">
<g id="icon-park-outline:blockchain">
<g id="Group">
<path id="Vector" d="M25 18.75V9.37503L17.1875 4.98065M12.8125 4.98065L5 9.37503V18.75M6.875 21.68L15 26.25L20 23.4375L23.125 21.6794M15 10.625L16.875 11.7188L18.75 12.8125V17.1875L16.875 18.2813L15 19.375L13.125 18.2813L11.25 17.1875V12.8125L13.125 11.7188L15 10.625ZM15 10.625V6.25003M18.75 16.875L23.125 19.375M11.25 16.875L6.875 19.375" stroke="white" stroke-width="2" stroke-linecap="round" stroke-linejoin="round"/>
<path id="Vector_2" d="M15 6.25C16.0355 6.25 16.875 5.41053 16.875 4.375C16.875 3.33947 16.0355 2.5 15 2.5C13.9645 2.5 13.125 3.33947 13.125 4.375C13.125 5.41053 13.9645 6.25 15 6.25Z" stroke="white" stroke-width="2" stroke-linecap="round" stroke-linejoin="round"/>
<path id="Vector_3" d="M5 22.5C6.03553 22.5 6.875 21.6605 6.875 20.625C6.875 19.5895 6.03553 18.75 5 18.75C3.96447 18.75 3.125 19.5895 3.125 20.625C3.125 21.6605 3.96447 22.5 5 22.5Z" stroke="white" stroke-width="2" stroke-linecap="round" stroke-linejoin="round"/>
<path id="Vector_4" d="M25 22.5C26.0355 22.5 26.875 21.6605 26.875 20.625C26.875 19.5895 26.0355 18.75 25 18.75C23.9645 18.75 23.125 19.5895 23.125 20.625C23.125 21.6605 23.9645 22.5 25 22.5Z" stroke="white" stroke-width="2" stroke-linecap="round" stroke-linejoin="round"/>
</g>
</g>
</svg>
