<svg width="146" height="41" viewBox="0 0 146 41" fill="none" xmlns="http://www.w3.org/2000/svg">
<g id="Logotype">
<g id="Solana">
<path id="Element" d="M28.4391 25.9756L24.7218 29.9614C24.6414 30.048 24.5441 30.1171 24.4358 30.1644C24.3275 30.2117 24.2106 30.2362 24.0925 30.2363H6.47097C6.38692 30.2362 6.30471 30.2117 6.23441 30.1656C6.1641 30.1196 6.10876 30.054 6.07514 29.977C6.04152 29.8999 6.03109 29.8148 6.04514 29.7319C6.05918 29.6491 6.09708 29.5721 6.1542 29.5104L9.86731 25.5246C9.94771 25.438 10.0451 25.3689 10.1534 25.3217C10.2616 25.2744 10.3785 25.2499 10.4966 25.2498H28.1182C28.2029 25.248 28.2864 25.2714 28.358 25.317C28.4295 25.3625 28.4861 25.4282 28.5203 25.5058C28.5547 25.5834 28.5652 25.6694 28.5507 25.753C28.5363 25.8366 28.4975 25.9141 28.4391 25.9756ZM24.7218 17.9473C24.6411 17.8612 24.5437 17.7924 24.4355 17.7451C24.3273 17.6979 24.2106 17.6732 24.0925 17.6726H6.47097C6.38692 17.6726 6.30471 17.6971 6.23441 17.7432C6.1641 17.7893 6.10876 17.8548 6.07514 17.9318C6.04152 18.0089 6.03109 18.094 6.04514 18.1769C6.05918 18.2597 6.09708 18.3367 6.1542 18.3984L9.86731 22.3863C9.94801 22.4725 10.0455 22.5413 10.1537 22.5886C10.2619 22.6358 10.3786 22.6605 10.4966 22.6611H28.1182C28.2021 22.6607 28.2839 22.6358 28.354 22.5896C28.424 22.5434 28.479 22.4778 28.5124 22.4009C28.5457 22.3239 28.556 22.2389 28.5417 22.1562C28.5277 22.0736 28.4899 21.9968 28.4328 21.9353L24.7218 17.9473ZM6.47097 15.0838H24.0925C24.2106 15.0837 24.3275 15.0593 24.4358 15.012C24.5441 14.9647 24.6414 14.8956 24.7218 14.809L28.4391 10.8232C28.4975 10.7617 28.5363 10.6842 28.5507 10.6006C28.5652 10.517 28.5547 10.431 28.5203 10.3534C28.4861 10.2758 28.4295 10.2101 28.358 10.1646C28.2864 10.119 28.2029 10.0956 28.1182 10.0974H10.4966C10.3785 10.0975 10.2616 10.122 10.1534 10.1693C10.0451 10.2165 9.94771 10.2856 9.86731 10.3722L6.1542 14.358C6.09708 14.4197 6.05918 14.4966 6.04514 14.5795C6.03109 14.6624 6.04152 14.7475 6.07514 14.8246C6.10876 14.9016 6.1641 14.9671 6.23441 15.0132C6.30471 15.0593 6.38692 15.0838 6.47097 15.0838Z" fill="url(#paint0_linear_207_2282)"/>
<g id="Element_2">
<path fill-rule="evenodd" clip-rule="evenodd" d="M101.331 12.405H92.101C91.694 12.4028 91.2908 12.4808 90.9141 12.6344C90.5373 12.7881 90.1943 13.0145 89.9052 13.3006C89.6159 13.5868 89.3858 13.9272 89.2281 14.3022C89.0703 14.6773 88.9879 15.0798 88.9858 15.4867V27.9287H92.1325V22.829H101.321V27.9287H104.468V15.4867C104.465 15.078 104.382 14.6738 104.223 14.2973C104.064 13.9209 103.832 13.5796 103.541 13.2932C103.249 13.0067 102.904 12.7808 102.525 12.6284C102.145 12.4759 101.74 12.4 101.331 12.405ZM101.308 19.7242H92.1199V15.5098H101.308V19.7242Z" fill="#D3D3D3"/>
<path fill-rule="evenodd" clip-rule="evenodd" d="M58.7229 12.405H68.1861C68.593 12.4028 68.9962 12.4807 69.373 12.6344C69.7498 12.7881 70.0928 13.0145 70.3818 13.3006C70.6711 13.5868 70.9012 13.9271 71.059 14.3022C71.2168 14.6773 71.2992 15.0798 71.3013 15.4867V24.847C71.2992 25.2539 71.2168 25.6564 71.059 26.0315C70.9012 26.4066 70.6711 26.7469 70.3818 27.0331C70.0928 27.3192 69.7498 27.5456 69.373 27.6993C68.9962 27.853 68.593 27.9309 68.1861 27.9287H58.7229C58.3153 27.932 57.911 27.8549 57.5332 27.7017C57.1556 27.5485 56.8118 27.3223 56.5217 27.0361C56.2313 26.7498 56.0006 26.4091 55.8424 26.0335C55.684 25.6578 55.6014 25.2546 55.5993 24.847V15.4867C55.6014 15.0791 55.684 14.6759 55.8424 14.3002C56.0006 13.9246 56.2313 13.5839 56.5217 13.2976C56.8118 13.0114 57.1556 12.7852 57.5332 12.632C57.911 12.4788 58.3153 12.4017 58.7229 12.405ZM58.746 24.824H68.163L68.1588 15.5097H58.746V24.824Z" fill="#D3D3D3"/>
<path d="M40.4951 18.6144H49.9226C50.3298 18.6122 50.7336 18.6903 51.1106 18.8443C51.4876 18.9982 51.8306 19.2249 52.1201 19.5115C52.4093 19.7981 52.6393 20.139 52.7968 20.5145C52.9544 20.8901 53.0362 21.293 53.0378 21.7003V24.847C53.0357 25.2539 52.9533 25.6564 52.7955 26.0314C52.6378 26.4065 52.4077 26.7469 52.1184 27.033C51.8293 27.3192 51.4863 27.5456 51.1095 27.6992C50.7328 27.8529 50.3296 27.9309 49.9226 27.9287H37.5729V24.8239H49.9037V21.7192H40.4636C40.0564 21.7214 39.6526 21.6433 39.2756 21.4894C38.8987 21.3354 38.5557 21.1087 38.2662 20.822C37.9769 20.5354 37.747 20.1946 37.5894 19.819C37.4319 19.4435 37.3501 19.0405 37.3484 18.6333V15.4866C37.3505 15.0797 37.4329 14.6772 37.5907 14.3021C37.7484 13.9271 37.9786 13.5867 38.2679 13.3006C38.5569 13.0144 38.8999 12.788 39.2767 12.6343C39.6535 12.4807 40.0567 12.4027 40.4636 12.4049H52.3728V15.5097H40.4951V18.6144Z" fill="#D3D3D3"/>
<path fill-rule="evenodd" clip-rule="evenodd" d="M128.844 12.4049H138.074C138.481 12.4027 138.884 12.4807 139.261 12.6343C139.638 12.788 139.981 13.0144 140.27 13.3006C140.559 13.5867 140.789 13.9271 140.947 14.3021C141.105 14.6772 141.187 15.0797 141.189 15.4866V27.9287H138.043V22.8289H128.875V27.9287H125.729V15.4866C125.731 15.0797 125.813 14.6772 125.971 14.3021C126.129 13.9271 126.359 13.5867 126.648 13.3006C126.937 13.0144 127.28 12.788 127.657 12.6343C128.034 12.4807 128.437 12.4027 128.844 12.4049ZM128.854 19.7242H138.043V15.5097H128.854V19.7242Z" fill="#D3D3D3"/>
<path d="M119.792 24.8239H118.533L114.034 13.7055C113.879 13.322 113.614 12.9932 113.272 12.7615C112.929 12.5298 112.525 12.4056 112.112 12.4049H109.32C109.048 12.4035 108.779 12.4556 108.528 12.5582C108.277 12.6608 108.048 12.8118 107.855 13.0027C107.663 13.1936 107.509 13.4206 107.404 13.6708C107.299 13.921 107.244 14.1894 107.243 14.4608V27.9286H110.39V15.5097H111.648L116.146 26.628C116.303 27.0108 116.57 27.3383 116.914 27.5684C117.258 27.7986 117.662 27.9211 118.076 27.9202H120.868C121.14 27.9216 121.409 27.8696 121.66 27.767C121.911 27.6644 122.139 27.5134 122.332 27.3225C122.525 27.1316 122.679 26.9045 122.784 26.6544C122.889 26.4042 122.943 26.1358 122.945 25.8644V12.4049H119.792V24.8239Z" fill="#D3D3D3"/>
<path d="M74.081 12.405H77.2277V24.824H86.6468V27.9287H77.2067C76.7989 27.9323 76.3945 27.8554 76.0164 27.7023C75.6386 27.5493 75.2944 27.3231 75.004 27.0368C74.7137 26.7505 74.4827 26.4097 74.3244 26.0339C74.166 25.6582 74.0831 25.2548 74.081 24.847V12.405Z" fill="#D3D3D3"/>
</g>
</g>
</g>
<defs>
<linearGradient id="paint0_linear_207_2282" x1="7.93984" y1="30.7162" x2="26.4187" y2="9.88476" gradientUnits="userSpaceOnUse">
<stop offset="0.08" stop-color="#9945FF"/>
<stop offset="0.3" stop-color="#8752F3"/>
<stop offset="0.5" stop-color="#5497D5"/>
<stop offset="0.6" stop-color="#43B4CA"/>
<stop offset="0.72" stop-color="#28E0B9"/>
<stop offset="0.97" stop-color="#19FB9B"/>
</linearGradient>
</defs>
</svg>
