<svg width="146" height="49" viewBox="0 0 146 49" fill="none" xmlns="http://www.w3.org/2000/svg">
<g id="Logotype">
<g id="Sui">
<path fill-rule="evenodd" clip-rule="evenodd" d="M63.9684 19.5521L63.9681 19.5527L64.0005 19.5929C65.8258 21.8579 66.9181 24.7363 66.9181 27.8697C66.9181 35.1672 60.9925 41.0833 53.6827 41.0833C46.3728 41.0833 40.4473 35.1672 40.4473 27.8697C40.4473 24.7363 41.5396 21.8579 43.3649 19.5929L43.3972 19.5528L43.3969 19.5521L53.316 7.42368C53.5054 7.19211 53.8599 7.19211 54.0493 7.42368L63.9684 19.5521ZM61.6268 21.3621L61.6274 21.3606L54.1851 12.2606C53.9256 11.9433 53.4399 11.9433 53.1804 12.2606L51.7005 14.0702C51.2479 14.6295 50.7149 15.5589 50.3567 16.6678C49.9985 17.7771 49.8131 19.0721 50.0625 20.3614C50.4486 22.3553 51.919 24.1102 54.4879 25.5676C58.2922 27.7318 60.6036 30.4046 61.313 33.5216C61.3506 33.6866 61.3829 33.8503 61.4105 34.0125L61.4428 34.2032L61.5649 34.0531C62.9824 32.3106 63.832 30.0888 63.832 27.6691C63.832 25.2849 63.0071 23.0928 61.6268 21.3621ZM45.7706 21.321L45.7703 21.3215C44.3705 23.0585 43.5328 25.2663 43.5328 27.6691C43.5328 33.2656 48.077 37.8023 53.6824 37.8023C55.2805 37.8023 56.7926 37.4335 58.1377 36.7763L58.1807 36.7553L58.1862 36.7078C58.2766 35.9399 58.2394 35.0615 58.0308 34.1688C57.5308 32.0297 55.7957 30.0793 52.8155 28.3831C49.3869 26.4381 47.3362 23.9267 46.7622 20.9147C46.7316 20.7546 46.7059 20.5951 46.6847 20.4365L46.6578 20.2362L45.7706 21.321Z" fill="#4CA3FF"/>
<path fill-rule="evenodd" clip-rule="evenodd" d="M83.1981 20.7882L83.1795 20.6336C83.0662 19.6757 82.61 18.9382 81.8033 18.4089C80.9876 17.8735 79.9803 17.6009 78.772 17.6009C77.8877 17.6009 77.1221 17.744 76.4711 18.0247C75.8247 18.3064 75.3265 18.69 74.969 19.1728C74.6199 19.653 74.4452 20.1976 74.4452 20.8121C74.4452 21.3272 74.5671 21.76 74.8036 22.1184C75.0548 22.4824 75.3752 22.7874 75.7667 23.0338C76.168 23.2797 76.5886 23.4835 77.0286 23.6453C77.4761 23.8032 77.8861 23.9311 78.2588 24.0291L78.2597 24.0294L80.3305 24.5869C80.8687 24.7282 81.4658 24.9229 82.1205 25.17C82.7926 25.4212 83.4329 25.7636 84.0419 26.1966C84.6674 26.6298 85.1821 27.1863 85.586 27.864C85.9975 28.5545 86.1983 29.3941 86.1983 30.3741C86.1983 31.5087 85.9006 32.5379 85.3039 33.4572C84.7126 34.3783 83.849 35.1055 82.7222 35.6419C81.5971 36.1805 80.2384 36.4459 78.6524 36.4459C77.1731 36.4459 75.883 36.2073 74.7867 35.7238C73.6994 35.2413 72.8366 34.5653 72.2055 33.6941L72.205 33.6934C71.5804 32.8217 71.2285 31.8107 71.1467 30.6655L71.1333 30.4777H74.0323L74.0461 30.6379C74.1096 31.3755 74.356 31.9753 74.7782 32.4476C75.2149 32.9219 75.7669 33.2784 76.4388 33.5153C77.1227 33.7474 77.8601 33.8642 78.6524 33.8642C79.576 33.8642 80.3994 33.7147 81.1254 33.4193C81.8523 33.1169 82.4208 32.702 82.8378 32.1776C83.2502 31.6524 83.4574 31.0405 83.4574 30.3343C83.4574 29.6913 83.2785 29.1844 82.9338 28.7974C82.5754 28.3948 82.0998 28.0633 81.5016 27.806C80.892 27.5438 80.2322 27.314 79.5219 27.1166L79.5206 27.1163L77.0106 26.3992C75.3988 25.9358 74.1104 25.2708 73.1555 24.3978C72.186 23.5114 71.704 22.3504 71.704 20.9317C71.704 19.7559 72.0226 18.7231 72.6638 17.8405C73.3074 16.9573 74.1692 16.2745 75.2436 15.7917C76.3247 15.3022 77.5284 15.0591 78.8516 15.0591C80.1873 15.0591 81.3816 15.2986 82.4307 15.7821C83.4769 16.2578 84.3117 16.913 84.9287 17.7495C85.5547 18.5888 85.885 19.5431 85.9196 20.6073L85.9251 20.7882H83.1981ZM72.8062 17.9433C73.3181 17.2408 73.973 16.6678 74.7707 16.2243C73.9727 16.6678 73.3177 17.2409 72.8057 17.9436C72.1881 18.7935 71.8793 19.7896 71.8793 20.9317C71.8793 22.3062 72.3442 23.4184 73.2738 24.2684C74.2035 25.1184 75.4651 25.7724 77.0588 26.2306L79.5688 26.9477C80.2859 27.147 80.9533 27.3794 81.5708 27.6449C82.1884 27.9106 82.6864 28.2558 83.0649 28.6808C83.4434 29.1058 83.6325 29.657 83.6325 30.3343C83.6325 31.078 83.4134 31.7287 82.9753 32.2865C82.6927 32.6418 82.3454 32.9474 81.9332 33.2034C82.3456 32.9473 82.6931 32.6416 82.9757 32.2862C83.4139 31.7284 83.633 31.0777 83.633 30.334C83.633 29.6567 83.4439 29.1055 83.0654 28.6806C82.6869 28.2556 82.1889 27.9103 81.5714 27.6447C80.9538 27.3791 80.2865 27.1467 79.5693 26.9475L77.0593 26.2303C75.4656 25.7722 74.204 25.1181 73.2743 24.2681C72.3447 23.4182 71.8799 22.3059 71.8799 20.9314C71.8799 19.7893 72.1886 18.7933 72.8062 17.9433ZM71.3216 30.653H71.3221C71.4018 31.7684 71.7438 32.7478 72.348 33.591C72.9589 34.4343 73.7956 35.0917 74.858 35.5632C75.9271 36.0347 77.1921 36.2704 78.653 36.2704C80.001 36.2704 81.1747 36.0763 82.1739 35.6881C81.1746 36.0765 80.0008 36.2706 78.6524 36.2706C77.1916 36.2706 75.9266 36.0349 74.8575 35.5634C73.795 35.092 72.9584 34.4346 72.3475 33.5913C71.775 32.7924 71.438 31.8714 71.3364 30.8283C71.3307 30.7702 71.3257 30.7118 71.3216 30.653ZM76.4014 17.8639C76.3175 17.9004 76.236 17.9387 76.1567 17.9786C76.2361 17.9385 76.3179 17.9002 76.4019 17.8636C77.0792 17.5715 77.8694 17.4254 78.7725 17.4254C80.0076 17.4254 81.0501 17.7043 81.9 18.262C82.7499 18.8198 83.2346 19.6034 83.3543 20.6127H85.7441L83.3538 20.6129C83.2341 19.6037 82.7494 18.8201 81.8995 18.2623C81.0495 17.7045 80.007 17.4256 78.772 17.4256C77.8689 17.4256 77.0787 17.5717 76.4014 17.8639Z" fill="#4CA3FF"/>
<path fill-rule="evenodd" clip-rule="evenodd" d="M97.5491 20.4376H100.251V36.0874H97.5491V33.7393C97.1799 34.3984 96.6605 34.9676 95.994 35.4468L95.9932 35.4474C95.2002 36.011 94.2059 36.2866 93.0234 36.2866C92.0406 36.2866 91.1604 36.0713 90.3874 35.6365L90.3865 35.636C89.6092 35.192 89.0023 34.5272 88.5637 33.6498L88.5633 33.6493C88.1226 32.7614 87.9074 31.6535 87.9074 30.3343V20.4376H90.609V30.1749C90.609 31.2561 90.9101 32.0993 91.4971 32.7238C92.0926 33.3503 92.8487 33.665 93.78 33.665C94.3336 33.665 94.9016 33.5237 95.4852 33.2349L95.4861 33.2346C96.0667 32.9506 96.5552 32.5145 96.9511 31.9203L96.9519 31.9192C97.3457 31.3379 97.5491 30.5879 97.5491 29.6569V20.4376ZM97.5527 33.3489C97.557 33.3401 97.5612 33.3312 97.5651 33.3223L97.5527 33.3489Z" fill="#4CA3FF"/>
<path fill-rule="evenodd" clip-rule="evenodd" d="M102.522 36.0874V20.4376H105.224V36.0874H102.522ZM102.698 35.912H105.048L102.698 35.9117V20.6129H102.698V35.912Z" fill="#4CA3FF"/>
<path fill-rule="evenodd" clip-rule="evenodd" d="M102.588 17.7227L102.586 17.7215C102.227 17.3774 102.044 16.957 102.044 16.4695C102.044 15.9819 102.227 15.5615 102.586 15.2174L102.588 15.2162C102.952 14.8734 103.39 14.7005 103.893 14.7005C104.395 14.7005 104.83 14.8733 105.189 15.2169C105.554 15.5605 105.741 15.981 105.741 16.4695C105.741 16.9579 105.554 17.3784 105.189 17.7221C104.83 18.0656 104.395 18.2384 103.893 18.2384C103.39 18.2384 102.952 18.0655 102.588 17.7227ZM103.894 18.0628C104.107 18.0628 104.306 18.029 104.491 17.9612C104.306 18.0291 104.107 18.0631 103.893 18.0631C103.435 18.0631 103.04 17.907 102.707 17.595C102.382 17.2829 102.219 16.9077 102.219 16.4695C102.219 16.0312 102.382 15.656 102.707 15.3439C102.84 15.2196 102.982 15.12 103.135 15.0452C102.983 15.12 102.841 15.2194 102.709 15.3436C102.383 15.6557 102.22 16.0308 102.22 16.4691C102.22 16.9074 102.383 17.2826 102.709 17.5946C103.041 17.9067 103.436 18.0628 103.894 18.0628Z" fill="#4CA3FF"/>
</g>
</g>
</svg>
