<svg width="30" height="30" viewBox="0 0 30 30" fill="none" xmlns="http://www.w3.org/2000/svg">
<path d="M3.75 15H5M15 3.75V5M25 15H26.25M7 7L7.875 7.875M23 7L22.125 7.875M12.125 21.25H17.875M11.25 20C10.2006 19.2129 9.42542 18.1156 9.03429 16.8635C8.64316 15.6114 8.65591 14.268 9.07073 13.0236C9.48555 11.7791 10.2814 10.6967 11.3456 9.92974C12.4097 9.16273 13.6882 8.75 15 8.75C16.3118 8.75 17.5903 9.16273 18.6544 9.92974C19.7186 10.6967 20.5145 11.7791 20.9293 13.0236C21.3441 14.268 21.3568 15.6114 20.9657 16.8635C20.5746 18.1156 19.7994 19.2129 18.75 20C18.262 20.4831 17.8945 21.0743 17.6773 21.7258C17.4602 22.3773 17.3994 23.0707 17.5 23.75C17.5 24.413 17.2366 25.0489 16.7678 25.5178C16.2989 25.9866 15.663 26.25 15 26.25C14.337 26.25 13.7011 25.9866 13.2322 25.5178C12.7634 25.0489 12.5 24.413 12.5 23.75C12.6006 23.0707 12.5398 22.3773 12.3227 21.7258C12.1055 21.0743 11.738 20.4831 11.25 20Z" stroke="white" stroke-width="2" stroke-linecap="round" stroke-linejoin="round"/>
</svg>
