<svg width="146" height="49" viewBox="0 0 146 49" fill="none" xmlns="http://www.w3.org/2000/svg">
<g id="Logotype">
<g id="TRON">
<path d="M119.422 16.6728V28.454L107.889 15.6355V31.7041H109.516V19.9193L121.057 32.7414V16.6728H119.422Z" fill="#D3D3D3"/>
<path d="M57.3425 16.6728H70.5141V18.2887H57.3425V16.6728Z" fill="#D3D3D3"/>
<path d="M61.659 21.1422H63.275V31.6932H61.659V21.1422Z" fill="#D3D3D3"/>
<path d="M66.1939 21.1422H64.578V31.6932H66.1939V21.1422Z" fill="#D3D3D3"/>
<path d="M112.467 31.7041H110.837V23.537L112.467 25.3495V31.7041Z" fill="#D3D3D3"/>
<path d="M97.3304 23.1002C96.7335 23.1002 96.2494 23.5843 96.2494 24.1812C96.2494 24.7781 96.7335 25.2621 97.3304 25.2621C97.9272 25.2621 98.4113 24.7781 98.4113 24.1812C98.4113 23.5843 97.9272 23.1002 97.3304 23.1002Z" fill="#D3D3D3"/>
<path fill-rule="evenodd" clip-rule="evenodd" d="M89.8147 24.1812C89.8147 20.0357 93.1849 16.6655 97.3304 16.6655C101.476 16.6655 104.846 20.0394 104.846 24.1812C104.846 28.3266 101.476 31.6969 97.3304 31.6969C93.1849 31.6969 89.8147 28.3266 89.8147 24.1812ZM91.4343 24.1812C91.4343 27.4349 94.0803 30.0773 97.3304 30.0773C100.58 30.0773 103.226 27.4313 103.226 24.1812C103.226 20.9274 100.58 18.2851 97.3304 18.2851C94.0766 18.2851 91.4343 20.9274 91.4343 24.1812Z" fill="#D3D3D3"/>
<path d="M82.4118 16.6764C84.934 16.6764 86.9867 18.7437 86.9867 21.2841C86.9867 23.2567 85.691 25.0474 83.8385 25.6625L87.045 31.7041H85.1779L82.1061 25.8918H78.3464V31.7078H76.7414V24.2613L82.4445 24.2649C84.0496 24.2467 85.3489 22.9183 85.3489 21.2841C85.3489 19.6427 84.0314 18.3069 82.4118 18.3069H75.4202V31.7078H73.8152V16.6764H82.4118Z" fill="#D3D3D3"/>
<path d="M46.231 13.6956L24.3281 9.66663L35.8546 38.6666L51.9123 19.1004L46.231 13.6956ZM45.8816 15.4717L49.2336 18.6563L40.0692 20.316L45.8816 15.4717ZM38.0784 19.9848L28.419 11.9741L44.2038 14.8785L38.0784 19.9848ZM37.3869 21.4042L35.8146 34.4229L27.3235 13.0514L37.3869 21.4042ZM38.8427 22.0921L48.9898 20.2541L37.3541 34.4338L38.8427 22.0921Z" fill="#FF060A"/>
</g>
</g>
</svg>
